<svg width="80" height="52" viewBox="0 0 80 52" fill="none" xmlns="http://www.w3.org/2000/svg">
<path d="M19.9105 34.68H8.79047L6.95047 40H1.07047L11.1105 12.04H17.6305L27.6705 40H21.7505L19.9105 34.68ZM18.3905 30.2L14.3505 18.52L10.3105 30.2H18.3905ZM31.1833 28.84C31.1833 26.6 31.6233 24.6133 32.5033 22.88C33.4099 21.1467 34.6366 19.8133 36.1833 18.88C37.7299 17.9467 39.4499 17.48 41.3433 17.48C42.7833 17.48 44.1566 17.8 45.4633 18.44C46.7699 19.0533 47.8099 19.88 48.5833 20.92V10.4H54.2633V40H48.5833V36.72C47.8899 37.8133 46.9166 38.6933 45.6633 39.36C44.4099 40.0267 42.9566 40.36 41.3033 40.36C39.4366 40.36 37.7299 39.88 36.1833 38.92C34.6366 37.96 33.4099 36.6133 32.5033 34.88C31.6233 33.12 31.1833 31.1067 31.1833 28.84ZM48.6233 28.92C48.6233 27.56 48.3566 26.4 47.8233 25.44C47.2899 24.4533 46.5699 23.7067 45.6633 23.2C44.7566 22.6667 43.7833 22.4 42.7433 22.4C41.7033 22.4 40.7433 22.6533 39.8633 23.16C38.9833 23.6667 38.2633 24.4133 37.7033 25.4C37.1699 26.36 36.9033 27.5067 36.9033 28.84C36.9033 30.1733 37.1699 31.3467 37.7033 32.36C38.2633 33.3467 38.9833 34.1067 39.8633 34.64C40.7699 35.1733 41.7299 35.44 42.7433 35.44C43.7833 35.44 44.7566 35.1867 45.6633 34.68C46.5699 34.1467 47.2899 33.4 47.8233 32.44C48.3566 31.4533 48.6233 30.28 48.6233 28.92ZM69.4127 40.36C67.5993 40.36 65.9727 40.04 64.5327 39.4C63.0927 38.7333 61.946 37.84 61.0927 36.72C60.266 35.6 59.8127 34.36 59.7327 33H65.3727C65.4793 33.8533 65.8927 34.56 66.6127 35.12C67.3593 35.68 68.2793 35.96 69.3727 35.96C70.4393 35.96 71.266 35.7467 71.8527 35.32C72.466 34.8933 72.7727 34.3467 72.7727 33.68C72.7727 32.96 72.3993 32.4267 71.6527 32.08C70.9327 31.7067 69.7727 31.3067 68.1727 30.88C66.5193 30.48 65.1593 30.0667 64.0927 29.64C63.0527 29.2133 62.146 28.56 61.3727 27.68C60.626 26.8 60.2527 25.6133 60.2527 24.12C60.2527 22.8933 60.5993 21.7733 61.2927 20.76C62.0127 19.7467 63.026 18.9467 64.3327 18.36C65.666 17.7733 67.226 17.48 69.0127 17.48C71.6527 17.48 73.7593 18.1467 75.3327 19.48C76.906 20.7867 77.7727 22.56 77.9327 24.8H72.5727C72.4927 23.92 72.1193 23.2267 71.4527 22.72C70.8127 22.1867 69.946 21.92 68.8527 21.92C67.8393 21.92 67.0527 22.1067 66.4927 22.48C65.9593 22.8533 65.6927 23.3733 65.6927 24.04C65.6927 24.7867 66.066 25.36 66.8127 25.76C67.5593 26.1333 68.7193 26.52 70.2927 26.92C71.8927 27.32 73.2127 27.7333 74.2527 28.16C75.2927 28.5867 76.186 29.2533 76.9327 30.16C77.706 31.04 78.106 32.2133 78.1327 33.68C78.1327 34.96 77.7727 36.1067 77.0527 37.12C76.3593 38.1333 75.346 38.9333 74.0127 39.52C72.706 40.08 71.1727 40.36 69.4127 40.36Z" fill="#3A3A3A"/>
</svg>
