<svg width="64" height="65" viewBox="0 0 64 65" fill="none" xmlns="http://www.w3.org/2000/svg">
<mask id="path-1-inside-1_548_11" fill="white">
<path d="M14.6668 8.87809C13.9305 8.87809 13.3335 9.47505 13.3335 10.2114V18.2114C13.3335 18.9478 13.9305 19.5448 14.6668 19.5448H38.6668C39.4032 19.5448 40.0002 18.9478 40.0002 18.2114V10.2114C40.0002 9.47505 39.4032 8.87809 38.6668 8.87809H14.6668ZM14.6668 6.21143H38.6668C40.876 6.21143 42.6668 8.00229 42.6668 10.2114V18.2114C42.6668 20.4206 40.876 22.2114 38.6668 22.2114H14.6668C12.4577 22.2114 10.6668 20.4206 10.6668 18.2114V10.2114C10.6668 8.00229 12.4577 6.21143 14.6668 6.21143ZM17.3335 11.5448H20.0002C20.7365 11.5448 21.3335 12.1417 21.3335 12.8781V15.5448C21.3335 16.2811 20.7365 16.8781 20.0002 16.8781H17.3335C16.5971 16.8781 16.0002 16.2811 16.0002 15.5448V12.8781C16.0002 12.1417 16.5971 11.5448 17.3335 11.5448ZM25.3335 11.5448H28.0002C28.7365 11.5448 29.3335 12.1417 29.3335 12.8781V15.5448C29.3335 16.2811 28.7365 16.8781 28.0002 16.8781H25.3335C24.5971 16.8781 24.0002 16.2811 24.0002 15.5448V12.8781C24.0002 12.1417 24.5971 11.5448 25.3335 11.5448ZM45.3335 43.5448V40.8781H38.6668C36.4577 40.8781 34.6668 39.0872 34.6668 36.8781V34.2114C34.6668 32.0023 36.4577 30.2114 38.6668 30.2114H45.3335V28.8781C45.3335 28.1417 44.7365 27.5448 44.0002 27.5448H20.0002C19.2638 27.5448 18.6668 28.1417 18.6668 28.8781V30.2114H25.3335C27.5426 30.2114 29.3335 32.0023 29.3335 34.2114V36.8781C29.3335 39.0872 27.5426 40.8781 25.3335 40.8781H9.3335C7.12436 40.8781 5.3335 39.0872 5.3335 36.8781V34.2114C5.3335 32.0023 7.12436 30.2114 9.3335 30.2114H16.0002V28.8781C16.0002 26.669 17.791 24.8781 20.0002 24.8781H26.6668V20.8781C26.6668 20.1417 27.2638 19.5448 28.0002 19.5448C28.7365 19.5448 29.3335 20.1417 29.3335 20.8781V24.8781H44.0002C46.2093 24.8781 48.0002 26.669 48.0002 28.8781V30.2114H54.6668C56.876 30.2114 58.6668 32.0023 58.6668 34.2114V36.8781C58.6668 39.0872 56.876 40.8781 54.6668 40.8781H48.0002V43.7724C49.5538 44.3215 50.6668 45.8031 50.6668 47.5448V48.8781H52.0002C54.2093 48.8781 56.0002 50.669 56.0002 52.8781V55.5448C56.0002 57.7539 54.2093 59.5448 52.0002 59.5448H46.6668C44.4577 59.5448 42.6668 57.7539 42.6668 55.5448V52.8781C42.6668 50.669 44.4577 48.8781 46.6668 48.8781H48.0002V47.5448C48.0002 46.8084 47.4032 46.2114 46.6668 46.2114H32.0002V48.8781H33.3335C35.5426 48.8781 37.3335 50.669 37.3335 52.8781V55.5448C37.3335 57.7539 35.5426 59.5448 33.3335 59.5448H28.0002C25.791 59.5448 24.0002 57.7539 24.0002 55.5448V52.8781C24.0002 50.669 25.791 48.8781 28.0002 48.8781H29.3335V46.2114H14.6668C13.9305 46.2114 13.3335 46.8084 13.3335 47.5448V48.8781H14.6668C16.876 48.8781 18.6668 50.669 18.6668 52.8781V55.5448C18.6668 57.7539 16.876 59.5448 14.6668 59.5448H9.3335C7.12436 59.5448 5.3335 57.7539 5.3335 55.5448V52.8781C5.3335 50.669 7.12436 48.8781 9.3335 48.8781H10.6668V47.5448C10.6668 45.3356 12.4577 43.5448 14.6668 43.5448H45.3335ZM33.3335 11.5448H36.0002C36.7365 11.5448 37.3335 12.1417 37.3335 12.8781V15.5448C37.3335 16.2811 36.7365 16.8781 36.0002 16.8781H33.3335C32.5971 16.8781 32.0002 16.2811 32.0002 15.5448V12.8781C32.0002 12.1417 32.5971 11.5448 33.3335 11.5448ZM38.6668 32.8781C37.9305 32.8781 37.3335 33.475 37.3335 34.2114V36.8781C37.3335 37.6145 37.9305 38.2114 38.6668 38.2114H54.6668C55.4032 38.2114 56.0002 37.6145 56.0002 36.8781V34.2114C56.0002 33.475 55.4032 32.8781 54.6668 32.8781H38.6668ZM9.3335 32.8781C8.59712 32.8781 8.00016 33.475 8.00016 34.2114V36.8781C8.00016 37.6145 8.59712 38.2114 9.3335 38.2114H25.3335C26.0699 38.2114 26.6668 37.6145 26.6668 36.8781V34.2114C26.6668 33.475 26.0699 32.8781 25.3335 32.8781H9.3335ZM9.3335 51.5448C8.59712 51.5448 8.00016 52.1417 8.00016 52.8781V55.5448C8.00016 56.2811 8.59712 56.8781 9.3335 56.8781H14.6668C15.4032 56.8781 16.0002 56.2811 16.0002 55.5448V52.8781C16.0002 52.1417 15.4032 51.5448 14.6668 51.5448H9.3335ZM28.0002 51.5448C27.2638 51.5448 26.6668 52.1417 26.6668 52.8781V55.5448C26.6668 56.2811 27.2638 56.8781 28.0002 56.8781H33.3335C34.0699 56.8781 34.6668 56.2811 34.6668 55.5448V52.8781C34.6668 52.1417 34.0699 51.5448 33.3335 51.5448H28.0002ZM46.6668 51.5448C45.9305 51.5448 45.3335 52.1417 45.3335 52.8781V55.5448C45.3335 56.2811 45.9305 56.8781 46.6668 56.8781H52.0002C52.7365 56.8781 53.3335 56.2811 53.3335 55.5448V52.8781C53.3335 52.1417 52.7365 51.5448 52.0002 51.5448H46.6668Z"/>
</mask>
<path d="M14.6668 8.87809C13.9305 8.87809 13.3335 9.47505 13.3335 10.2114V18.2114C13.3335 18.9478 13.9305 19.5448 14.6668 19.5448H38.6668C39.4032 19.5448 40.0002 18.9478 40.0002 18.2114V10.2114C40.0002 9.47505 39.4032 8.87809 38.6668 8.87809H14.6668ZM14.6668 6.21143H38.6668C40.876 6.21143 42.6668 8.00229 42.6668 10.2114V18.2114C42.6668 20.4206 40.876 22.2114 38.6668 22.2114H14.6668C12.4577 22.2114 10.6668 20.4206 10.6668 18.2114V10.2114C10.6668 8.00229 12.4577 6.21143 14.6668 6.21143ZM17.3335 11.5448H20.0002C20.7365 11.5448 21.3335 12.1417 21.3335 12.8781V15.5448C21.3335 16.2811 20.7365 16.8781 20.0002 16.8781H17.3335C16.5971 16.8781 16.0002 16.2811 16.0002 15.5448V12.8781C16.0002 12.1417 16.5971 11.5448 17.3335 11.5448ZM25.3335 11.5448H28.0002C28.7365 11.5448 29.3335 12.1417 29.3335 12.8781V15.5448C29.3335 16.2811 28.7365 16.8781 28.0002 16.8781H25.3335C24.5971 16.8781 24.0002 16.2811 24.0002 15.5448V12.8781C24.0002 12.1417 24.5971 11.5448 25.3335 11.5448ZM45.3335 43.5448V40.8781H38.6668C36.4577 40.8781 34.6668 39.0872 34.6668 36.8781V34.2114C34.6668 32.0023 36.4577 30.2114 38.6668 30.2114H45.3335V28.8781C45.3335 28.1417 44.7365 27.5448 44.0002 27.5448H20.0002C19.2638 27.5448 18.6668 28.1417 18.6668 28.8781V30.2114H25.3335C27.5426 30.2114 29.3335 32.0023 29.3335 34.2114V36.8781C29.3335 39.0872 27.5426 40.8781 25.3335 40.8781H9.3335C7.12436 40.8781 5.3335 39.0872 5.3335 36.8781V34.2114C5.3335 32.0023 7.12436 30.2114 9.3335 30.2114H16.0002V28.8781C16.0002 26.669 17.791 24.8781 20.0002 24.8781H26.6668V20.8781C26.6668 20.1417 27.2638 19.5448 28.0002 19.5448C28.7365 19.5448 29.3335 20.1417 29.3335 20.8781V24.8781H44.0002C46.2093 24.8781 48.0002 26.669 48.0002 28.8781V30.2114H54.6668C56.876 30.2114 58.6668 32.0023 58.6668 34.2114V36.8781C58.6668 39.0872 56.876 40.8781 54.6668 40.8781H48.0002V43.7724C49.5538 44.3215 50.6668 45.8031 50.6668 47.5448V48.8781H52.0002C54.2093 48.8781 56.0002 50.669 56.0002 52.8781V55.5448C56.0002 57.7539 54.2093 59.5448 52.0002 59.5448H46.6668C44.4577 59.5448 42.6668 57.7539 42.6668 55.5448V52.8781C42.6668 50.669 44.4577 48.8781 46.6668 48.8781H48.0002V47.5448C48.0002 46.8084 47.4032 46.2114 46.6668 46.2114H32.0002V48.8781H33.3335C35.5426 48.8781 37.3335 50.669 37.3335 52.8781V55.5448C37.3335 57.7539 35.5426 59.5448 33.3335 59.5448H28.0002C25.791 59.5448 24.0002 57.7539 24.0002 55.5448V52.8781C24.0002 50.669 25.791 48.8781 28.0002 48.8781H29.3335V46.2114H14.6668C13.9305 46.2114 13.3335 46.8084 13.3335 47.5448V48.8781H14.6668C16.876 48.8781 18.6668 50.669 18.6668 52.8781V55.5448C18.6668 57.7539 16.876 59.5448 14.6668 59.5448H9.3335C7.12436 59.5448 5.3335 57.7539 5.3335 55.5448V52.8781C5.3335 50.669 7.12436 48.8781 9.3335 48.8781H10.6668V47.5448C10.6668 45.3356 12.4577 43.5448 14.6668 43.5448H45.3335ZM33.3335 11.5448H36.0002C36.7365 11.5448 37.3335 12.1417 37.3335 12.8781V15.5448C37.3335 16.2811 36.7365 16.8781 36.0002 16.8781H33.3335C32.5971 16.8781 32.0002 16.2811 32.0002 15.5448V12.8781C32.0002 12.1417 32.5971 11.5448 33.3335 11.5448ZM38.6668 32.8781C37.9305 32.8781 37.3335 33.475 37.3335 34.2114V36.8781C37.3335 37.6145 37.9305 38.2114 38.6668 38.2114H54.6668C55.4032 38.2114 56.0002 37.6145 56.0002 36.8781V34.2114C56.0002 33.475 55.4032 32.8781 54.6668 32.8781H38.6668ZM9.3335 32.8781C8.59712 32.8781 8.00016 33.475 8.00016 34.2114V36.8781C8.00016 37.6145 8.59712 38.2114 9.3335 38.2114H25.3335C26.0699 38.2114 26.6668 37.6145 26.6668 36.8781V34.2114C26.6668 33.475 26.0699 32.8781 25.3335 32.8781H9.3335ZM9.3335 51.5448C8.59712 51.5448 8.00016 52.1417 8.00016 52.8781V55.5448C8.00016 56.2811 8.59712 56.8781 9.3335 56.8781H14.6668C15.4032 56.8781 16.0002 56.2811 16.0002 55.5448V52.8781C16.0002 52.1417 15.4032 51.5448 14.6668 51.5448H9.3335ZM28.0002 51.5448C27.2638 51.5448 26.6668 52.1417 26.6668 52.8781V55.5448C26.6668 56.2811 27.2638 56.8781 28.0002 56.8781H33.3335C34.0699 56.8781 34.6668 56.2811 34.6668 55.5448V52.8781C34.6668 52.1417 34.0699 51.5448 33.3335 51.5448H28.0002ZM46.6668 51.5448C45.9305 51.5448 45.3335 52.1417 45.3335 52.8781V55.5448C45.3335 56.2811 45.9305 56.8781 46.6668 56.8781H52.0002C52.7365 56.8781 53.3335 56.2811 53.3335 55.5448V52.8781C53.3335 52.1417 52.7365 51.5448 52.0002 51.5448H46.6668Z" fill="#3A3A3A" stroke="#3A3A3A" stroke-width="2" mask="url(#path-1-inside-1_548_11)"/>
</svg>
