<svg width="33" height="100" viewBox="0 0 33 100" fill="none" xmlns="http://www.w3.org/2000/svg">
<path d="M0.510926 99.411L4.79687 99.2893L2.54852 95.6384L0.510926 99.411ZM27.6556 1.15479C28.1465 2.22515 28.5935 3.41759 28.9947 4.71963L29.7044 4.50096C29.2953 3.17311 28.8372 1.94966 28.3307 0.845212L27.6556 1.15479ZM30.6322 12.2329C30.9836 14.6274 31.2295 17.2041 31.3656 19.9203L32.1073 19.8832C31.9701 17.1461 31.7222 14.5457 31.367 12.1251L30.6322 12.2329ZM31.4615 27.6415C31.4042 30.1513 31.264 32.7339 31.0384 35.3623L31.7783 35.4258C32.0052 32.7823 32.1463 30.1842 32.2039 27.6584L31.4615 27.6415ZM30.1489 43.0443C29.7806 45.5729 29.3349 48.1188 28.8099 50.6597L29.5372 50.81C30.0652 48.2544 30.5134 45.6941 30.8838 43.1514L30.1489 43.0443ZM27.0134 58.1784C26.3332 60.6734 25.5728 63.1414 24.7303 65.5605L25.4316 65.8048C26.28 63.3687 27.0455 60.8843 27.7299 58.3737L27.0134 58.1784ZM21.9108 72.7493C20.8597 75.138 19.7181 77.4495 18.4839 79.6592L19.1323 80.0213C20.3788 77.7894 21.5308 75.4568 22.5906 73.0484L21.9108 72.7493ZM14.351 86.1681C12.8138 88.292 11.1676 90.2681 9.40989 92.0662L9.94096 92.5854C11.7266 90.7586 13.3962 88.7541 14.9526 86.6035L14.351 86.1681ZM3.5808 97.0522C3.43701 97.1531 3.29263 97.2529 3.14765 97.3516L3.56557 97.9655C3.71345 97.8648 3.86071 97.763 4.00734 97.6602L3.5808 97.0522Z" fill="#3A3A3A"/>
</svg>
