<svg width="109" height="90" viewBox="0 0 109 90" fill="none" xmlns="http://www.w3.org/2000/svg">
<path d="M3 89.3785L0.750031 84.0614L6.47971 84.7714L3 89.3785ZM108.5 1.37891C106.912 1.37883 105.201 1.49967 103.38 1.73679L103.251 0.745168C105.107 0.503406 106.863 0.378829 108.5 0.378906L108.5 1.37891ZM93.2515 3.92782C90.117 4.83354 86.8184 5.96902 83.4102 7.31562L83.0427 6.38558C86.4769 5.02874 89.8055 3.88262 92.9739 2.96712L93.2515 3.92782ZM73.8828 11.4981C70.8342 12.9657 67.7427 14.5749 64.6426 16.3136L64.1534 15.4415C67.2712 13.6928 70.3812 12.0739 73.4491 10.5971L73.8828 11.4981ZM55.7075 21.6773C52.8077 23.5353 49.9299 25.4973 47.1023 27.5533L46.5142 26.7445C49.358 24.6767 52.2521 22.7037 55.168 20.8353L55.7075 21.6773ZM38.8686 33.9352C36.1821 36.1564 33.5737 38.4604 31.0713 40.8372L30.3826 40.1122C32.9026 37.7187 35.5282 35.3995 38.2313 33.1645L38.8686 33.9352ZM23.8082 48.2894C21.4573 50.9068 19.2523 53.5916 17.2246 56.3326L16.4207 55.7379C18.4687 52.9693 20.694 50.2601 23.0643 47.6212L23.8082 48.2894ZM11.5281 65.0197C9.7733 68.0886 8.26296 71.2083 7.0356 74.3646L6.10358 74.0022C7.35063 70.7952 8.8831 67.6309 10.66 64.5233L11.5281 65.0197ZM4.17154 84.2953C4.12806 84.529 4.0863 84.7628 4.04624 84.9968L3.06059 84.828C3.10145 84.5893 3.14406 84.3508 3.1884 84.1124L4.17154 84.2953Z" fill="#3A3A3A"/>
</svg>
