<svg width="32" height="100" viewBox="0 0 32 100" fill="none" xmlns="http://www.w3.org/2000/svg">
<path d="M31.994 99.411L27.708 99.2893L29.9564 95.6384L31.994 99.411ZM4.84924 1.15479C4.35838 2.22515 3.9114 3.41759 3.51022 4.71963L2.8005 4.50096C3.20963 3.17311 3.6677 1.94966 4.1742 0.845212L4.84924 1.15479ZM1.87271 12.2329C1.52125 14.6274 1.27541 17.2041 1.13933 19.9203L0.397608 19.8832C0.534733 17.1461 0.782646 14.5457 1.13793 12.1251L1.87271 12.2329ZM1.04343 27.6415C1.10064 30.1513 1.24086 32.7339 1.46651 35.3623L0.726586 35.4258C0.499639 32.7823 0.358545 30.1842 0.300973 27.6584L1.04343 27.6415ZM2.35602 43.0443C2.72432 45.5729 3.16999 48.1188 3.69497 50.6597L2.96769 50.81C2.43968 48.2544 1.99149 45.6941 1.62112 43.1514L2.35602 43.0443ZM5.49146 58.1784C6.17167 60.6734 6.93209 63.1414 7.7746 65.5605L7.07326 65.8048C6.22484 63.3687 5.45941 60.8843 4.77496 58.3737L5.49146 58.1784ZM10.594 72.7493C11.6452 75.138 12.7868 77.4495 14.021 79.6592L13.3726 80.0213C12.1261 77.7894 10.9741 75.4568 9.9143 73.0484L10.594 72.7493ZM18.1539 86.1681C19.691 88.292 21.3373 90.2681 23.095 92.0662L22.5639 92.5854C20.7782 90.7586 19.1087 88.7541 17.5523 86.6035L18.1539 86.1681ZM28.9241 97.0522C29.0679 97.1531 29.2123 97.2529 29.3572 97.3516L28.9393 97.9655C28.7914 97.8648 28.6442 97.763 28.4975 97.6602L28.9241 97.0522Z" fill="#3A3A3A"/>
</svg>
