<svg width="108" height="90" viewBox="0 0 108 90" fill="none" xmlns="http://www.w3.org/2000/svg">
<path d="M105.5 89.3785L107.75 84.0614L102.02 84.7714L105.5 89.3785ZM2.34957e-05 1.37891C1.58752 1.37883 3.29947 1.49967 5.11959 1.73679L5.24877 0.745168C3.39299 0.503406 1.63737 0.378829 -2.34957e-05 0.378906L2.34957e-05 1.37891ZM15.2485 3.92782C18.383 4.83354 21.6816 5.96902 25.0898 7.31562L25.4573 6.38558C22.0231 5.02874 18.6945 3.88262 15.5261 2.96712L15.2485 3.92782ZM34.6172 11.4981C37.6658 12.9657 40.7573 14.5749 43.8574 16.3136L44.3466 15.4415C41.2288 13.6928 38.1188 12.0739 35.0509 10.5971L34.6172 11.4981ZM52.7925 21.6773C55.6923 23.5353 58.5701 25.4973 61.3977 27.5533L61.9858 26.7445C59.142 24.6767 56.2479 22.7037 53.332 20.8353L52.7925 21.6773ZM69.6314 33.9352C72.3179 36.1564 74.9263 38.4604 77.4287 40.8372L78.1174 40.1122C75.5974 37.7187 72.9718 35.3995 70.2687 33.1645L69.6314 33.9352ZM84.6918 48.2894C87.0427 50.9068 89.2477 53.5916 91.2754 56.3326L92.0793 55.7379C90.0313 52.9693 87.806 50.2601 85.4357 47.6212L84.6918 48.2894ZM96.9719 65.0197C98.7267 68.0886 100.237 71.2083 101.464 74.3646L102.396 74.0022C101.149 70.7952 99.6169 67.6309 97.84 64.5233L96.9719 65.0197ZM104.328 84.2953C104.372 84.529 104.414 84.7628 104.454 84.9968L105.439 84.828C105.399 84.5893 105.356 84.3508 105.312 84.1124L104.328 84.2953Z" fill="#3A3A3A"/>
</svg>
