<svg width="16" height="16" viewBox="0 0 16 16" fill="none" xmlns="http://www.w3.org/2000/svg">
<path d="M13.6188 3.09341V13.4437C13.6188 13.6479 13.4525 13.8134 13.2473 13.8134H2.8442C2.639 13.8134 2.47266 13.6479 2.47266 13.4437V3.09341C2.47266 2.88926 2.639 2.72375 2.8442 2.72375H13.2473C13.4525 2.72375 13.6188 2.88926 13.6188 3.09341Z" stroke="white" stroke-width="0.694738" stroke-linecap="round" stroke-linejoin="round"/>
<path d="M2.47266 10.7329L6.80728 8.88464L13.6188 11.9651" stroke="white" stroke-width="0.694738" stroke-linecap="round" stroke-linejoin="round"/>
<path d="M10.5226 7.03638C9.83864 7.03638 9.28418 6.48472 9.28418 5.8042C9.28418 5.12369 9.83864 4.57202 10.5226 4.57202C11.2066 4.57202 11.7611 5.12369 11.7611 5.8042C11.7611 6.48472 11.2066 7.03638 10.5226 7.03638Z" stroke="white" stroke-width="0.694738" stroke-linecap="round" stroke-linejoin="round"/>
</svg>
