<svg width="33" height="32" viewBox="0 0 33 32" fill="none" xmlns="http://www.w3.org/2000/svg">
<path d="M28.4434 4.79951V27.1995C28.4434 27.6414 28.0823 27.9995 27.6368 27.9995H5.05078C4.60529 27.9995 4.24414 27.6414 4.24414 27.1995V4.79951C4.24414 4.35768 4.60529 3.99951 5.05078 3.99951H27.6368C28.0823 3.99951 28.4434 4.35768 28.4434 4.79951Z" stroke="white" stroke-width="1.5" stroke-linecap="round" stroke-linejoin="round"/>
<path d="M4.24414 21.3328L13.655 17.3328L28.4434 23.9994" stroke="white" stroke-width="1.5" stroke-linecap="round" stroke-linejoin="round"/>
<path d="M21.7215 13.3328C20.2365 13.3328 19.0327 12.1389 19.0327 10.6662C19.0327 9.19342 20.2365 7.99951 21.7215 7.99951C23.2066 7.99951 24.4103 9.19342 24.4103 10.6662C24.4103 12.1389 23.2066 13.3328 21.7215 13.3328Z" stroke="white" stroke-width="1.5" stroke-linecap="round" stroke-linejoin="round"/>
</svg>
