<svg width="64" height="65" viewBox="0 0 64 65" fill="none" xmlns="http://www.w3.org/2000/svg">
<mask id="path-1-inside-1_480_76" fill="white">
<path d="M3.36842 34.1587C3.36843 40.666 5.40766 47.0053 9.19214 52.2626C12.9766 57.5199 18.3108 61.4236 24.4258 63.411C30.5407 65.3983 37.1205 65.3667 43.2166 63.3205C49.3126 61.2744 54.61 57.3195 58.345 52.0259C62.08 46.7324 64.0597 40.3738 63.9986 33.8667C63.9376 27.3596 61.839 21.0403 58.0054 15.8196C54.1718 10.599 48.8012 6.74686 42.6679 4.81849C36.5346 2.89012 29.9554 2.98517 23.8788 5.08993L33.6842 34.1587L3.36842 34.1587Z"/>
</mask>
<path d="M3.36842 34.1587C3.36843 40.666 5.40766 47.0053 9.19214 52.2626C12.9766 57.5199 18.3108 61.4236 24.4258 63.411C30.5407 65.3983 37.1205 65.3667 43.2166 63.3205C49.3126 61.2744 54.61 57.3195 58.345 52.0259C62.08 46.7324 64.0597 40.3738 63.9986 33.8667C63.9376 27.3596 61.839 21.0403 58.0054 15.8196C54.1718 10.599 48.8012 6.74686 42.6679 4.81849C36.5346 2.89012 29.9554 2.98517 23.8788 5.08993L33.6842 34.1587L3.36842 34.1587Z" stroke="#3A3A3A" stroke-width="6" mask="url(#path-1-inside-1_480_76)"/>
<path d="M47.9771 30.3143C47.4171 30.3143 47.0251 30.2023 46.8011 29.9783C46.5771 29.7383 46.4651 29.4423 46.4651 29.0903V28.7063C46.4651 28.3543 46.5771 28.0663 46.8011 27.8423C47.0251 27.6023 47.4171 27.4823 47.9771 27.4823C48.5371 27.4823 48.9291 27.6023 49.1531 27.8423C49.3771 28.0663 49.4891 28.3543 49.4891 28.7063V29.0903C49.4891 29.4423 49.3771 29.7383 49.1531 29.9783C48.9291 30.2023 48.5371 30.3143 47.9771 30.3143ZM42.5531 43.8023H47.0171V34.6823H42.5531V33.0503H48.9371V43.8023H53.1131V45.4343H42.5531V43.8023Z" fill="#3A3A3A"/>
<mask id="path-3-inside-2_480_76" fill="white">
<path d="M-0.000227717 31.5986C-0.00022827 25.191 1.97704 18.9437 5.6548 13.7313C9.33256 8.51895 14.5267 4.60238 20.5101 2.52987L30.3156 31.5986L-0.000227717 31.5986Z"/>
</mask>
<path d="M-0.000227717 31.5986C-0.00022827 25.191 1.97704 18.9437 5.6548 13.7313C9.33256 8.51895 14.5267 4.60238 20.5101 2.52987L30.3156 31.5986L-0.000227717 31.5986Z" stroke="#3A3A3A" stroke-width="6" mask="url(#path-3-inside-2_480_76)"/>
</svg>
