<?xml version="1.0" standalone="no"?>
<!DOCTYPE svg PUBLIC "-//W3C//DTD SVG 20010904//EN"
 "http://www.w3.org/TR/2001/REC-SVG-20010904/DTD/svg10.dtd">
<svg version="1.0" xmlns="http://www.w3.org/2000/svg"
 width="1280.000000pt" height="1280.000000pt" viewBox="0 0 1280.000000 1280.000000"
 preserveAspectRatio="xMidYMid meet">
<metadata>
Created by potrace 1.15, written by Peter Selinger 2001-2017
</metadata>
<g transform="translate(0.000000,1280.000000) scale(0.100000,-0.100000)"
fill="#3A3A3A" stroke="none">
<path d="M6145 12794 c-216 -13 -391 -28 -530 -45 -995 -122 -1927 -467 -2760
-1022 -907 -604 -1648 -1433 -2146 -2402 -395 -769 -615 -1549 -690 -2450 -17
-193 -17 -757 0 -950 75 -901 295 -1681 690 -2450 610 -1188 1578 -2156 2766
-2766 769 -395 1549 -615 2450 -690 193 -17 757 -17 950 0 901 75 1681 295
2450 690 1187 610 2156 1579 2766 2766 395 769 615 1549 690 2450 17 193 17
757 0 950 -75 901 -295 1681 -690 2450 -610 1188 -1578 2156 -2766 2766 -753
387 -1531 610 -2390 684 -164 15 -666 27 -790 19z m739 -779 c1098 -94 2121
-499 3001 -1188 401 -314 804 -738 1106 -1162 598 -840 944 -1793 1030 -2840
16 -193 16 -657 0 -850 -114 -1385 -693 -2628 -1672 -3591 -960 -942 -2172
-1494 -3524 -1605 -193 -16 -657 -16 -850 0 -1352 111 -2561 661 -3523 1605
-979 960 -1561 2210 -1673 3591 -15 193 -15 657 0 850 112 1384 693 2629 1678
3596 872 856 1985 1403 3183 1563 416 55 832 66 1244 31z"/>
<path d="M6243 9900 c-599 -30 -1099 -153 -1593 -391 -700 -338 -1201 -845
-1574 -1594 -243 -489 -383 -999 -427 -1559 -24 -300 -3 -755 46 -1042 86
-495 280 -996 532 -1378 437 -659 1157 -1110 2098 -1315 431 -94 797 -126
1335 -118 357 5 535 20 811 67 658 113 1232 361 1674 725 117 97 315 297 403
408 88 111 201 285 266 408 31 58 56 109 56 112 0 4 -179 7 -397 6 l-398 0
-70 -85 c-383 -467 -995 -774 -1767 -888 -417 -62 -1044 -62 -1461 -1 -613 91
-1144 302 -1522 606 -399 321 -703 812 -845 1364 -161 627 -103 1399 156 2085
234 616 591 1076 1089 1402 403 264 849 411 1430 469 155 16 596 16 750 0 657
-66 1150 -278 1532 -659 368 -366 574 -801 624 -1317 16 -168 7 -447 -21 -610
-110 -651 -497 -1248 -1004 -1553 -115 -69 -247 -110 -311 -96 -102 22 -136
109 -110 287 17 124 12 97 205 1037 39 190 75 365 80 390 5 25 41 200 80 390
39 190 75 365 80 390 5 25 41 200 80 390 39 190 74 360 77 378 l6 32 -495 0
-495 0 -43 -197 c-23 -109 -45 -204 -49 -210 -4 -8 -27 15 -61 63 -145 203
-363 345 -622 407 -82 19 -121 22 -318 21 -196 0 -239 -3 -330 -22 -323 -70
-595 -215 -838 -447 -401 -382 -700 -952 -806 -1535 -43 -233 -59 -589 -36
-795 44 -390 180 -700 415 -944 200 -208 438 -340 716 -397 104 -21 385 -30
490 -15 292 42 546 164 773 372 31 28 58 50 59 48 1 -2 11 -29 21 -59 41 -122
140 -241 245 -295 98 -49 190 -67 378 -72 821 -25 1517 364 2027 1134 400 604
557 1283 470 2023 -59 502 -248 997 -532 1394 -481 671 -1299 1095 -2267 1175
-186 15 -434 20 -612 11z m62 -2275 c248 -52 448 -262 519 -546 37 -149 47
-377 25 -577 -26 -242 -111 -572 -215 -830 -99 -247 -188 -388 -343 -543 -155
-155 -303 -233 -497 -260 -215 -30 -398 34 -549 193 -151 158 -225 403 -225
747 0 444 161 1041 363 1346 236 357 592 539 922 470z"/>
</g>
</svg>
