<svg width="24" height="18" viewBox="0 0 24 18" fill="none" xmlns="http://www.w3.org/2000/svg">
<path d="M1.41403 3.53938C1.41403 3.53938 2.59227 0.329387 10.8476 2.63505C19.103 4.94071 22.5666 1.61348 22.5666 1.61348L22.5666 8.38021L22.5666 14.2979C22.5666 14.2979 15.4283 17.9976 10.8476 15.089C6.26702 12.1804 2.11866 15.2493 1.41413 15.8823L1.41403 3.53938Z" fill="url(#paint0_linear_1423_419)"/>
<path d="M12.4794 5.98463L12.0094 5.73055L11.5309 5.97193L11.624 5.4426L11.2472 5.06149L11.7765 4.98526L12.0263 4.51099L12.2592 4.99373L12.7843 5.08266L12.4032 5.4553L12.4794 5.98463Z" fill="#FFDE00"/>
<path d="M10.7855 6.40389L10.3154 6.15405L9.83267 6.39118L9.92583 5.86609L9.55318 5.48498L10.0825 5.40875L10.3281 4.93448L10.5653 5.41722L11.0903 5.50615L10.705 5.87456L10.7855 6.40389Z" fill="#FFDE00"/>
<path d="M9.51947 7.52604L9.04943 7.2762L8.57092 7.51334L8.66408 6.98824L8.2872 6.60713L8.81653 6.53091L9.06637 6.05663L9.29927 6.53938L9.8286 6.6283L9.44325 7.00095L9.51947 7.52604Z" fill="#FFDE00"/>
<path d="M8.90545 9.13511L8.43117 8.88527L7.95266 9.1224L8.04583 8.59731L7.66895 8.2162L8.19827 8.13998L8.44811 7.6657L8.68102 8.14421L9.21034 8.23314L8.82499 8.60578L8.90545 9.13511Z" fill="#FFDE00"/>
<path d="M9.11696 10.8883L8.64692 10.6384L8.16841 10.8756L8.26157 10.3505L7.88469 9.96935L8.41401 9.89312L8.66385 9.41885L8.89676 9.90159L9.42185 9.99052L9.04073 10.3632L9.11696 10.8883Z" fill="#FFDE00"/>
<path d="M10.0868 12.2815L9.61252 12.0316L9.13401 12.2688L9.22717 11.7437L8.85452 11.3625L9.38385 11.2863L9.62946 10.812L9.86659 11.2948L10.3917 11.3837L10.0063 11.7521L10.0868 12.2815Z" fill="#FFDE00"/>
<path d="M11.5947 13.0819L11.1204 12.832L10.6419 13.0692L10.7351 12.5441L10.3582 12.163L10.8918 12.0867L11.1374 11.6125L11.3703 12.091L11.8996 12.1799L11.5143 12.5525L11.5947 13.0819Z" fill="#FFDE00"/>
<path d="M13.3689 13.0819L12.8946 12.832L12.4161 13.0692L12.5092 12.5441L12.1366 12.163L12.6659 12.0867L12.9115 11.6125L13.1444 12.091L13.6737 12.1799L13.2884 12.5525L13.3689 13.0819Z" fill="#FFDE00"/>
<path d="M14.8763 12.2815L14.402 12.0316L13.9235 12.2688L14.0167 11.7437L13.6398 11.3625L14.1691 11.2863L14.4189 10.812L14.6519 11.2948L15.1812 11.3837L14.7958 11.7521L14.8763 12.2815Z" fill="#FFDE00"/>
<path d="M15.8419 10.8883L15.3718 10.6384L14.8933 10.8756L14.9865 10.3505L14.6096 9.96935L15.1389 9.89312L15.3845 9.41885L15.6217 9.90159L16.1468 9.99052L15.7657 10.3632L15.8419 10.8883Z" fill="#FFDE00"/>
<path d="M16.0576 9.13511L15.5834 8.88527L15.1048 9.1224L15.198 8.59731L14.8254 8.2162L15.3547 8.13998L15.6003 7.6657L15.8374 8.14421L16.3625 8.23314L15.9772 8.60578L16.0576 9.13511Z" fill="#FFDE00"/>
<path d="M15.4394 7.52604L14.9651 7.2762L14.4866 7.51334L14.5797 6.98824L14.2071 6.60713L14.7364 6.53091L14.982 6.05663L15.2192 6.53938L15.7443 6.6283L15.3589 7.00095L15.4394 7.52604Z" fill="#FFDE00"/>
<path d="M14.1734 6.40389L13.7033 6.15405L13.2248 6.39118L13.318 5.86609L12.9411 5.48498L13.4704 5.40875L13.7203 4.93448L13.9532 5.41722L14.4825 5.50615L14.0972 5.87456L14.1734 6.40389Z" fill="#FFDE00"/>
<path d="M12.4794 5.98463L12.0094 5.73055L11.5309 5.97193L11.624 5.4426L11.2472 5.06149L11.7765 4.98526L12.0263 4.51099L12.2592 4.99373L12.7843 5.08266L12.4032 5.4553L12.4794 5.98463Z" fill="#FFDE00"/>
<defs>
<linearGradient id="paint0_linear_1423_419" x1="11.1991" y1="4.55266" x2="12.8009" y2="19.8946" gradientUnits="userSpaceOnUse">
<stop stop-color="#3656FD"/>
<stop offset="1" stop-color="#051253" stop-opacity="0.61"/>
</linearGradient>
</defs>
</svg>
