<svg width="19" height="15" viewBox="0 0 19 15" fill="none" xmlns="http://www.w3.org/2000/svg">
<path d="M0.000192627 2.57317C0.000192627 2.57317 2.90896 -1.44743 8.63471 0.562896C14.3605 2.57322 18.9902 0.562896 18.9902 0.562896V7.14197C18.9902 7.14197 12.3047 9.51765 8.63476 7.87288C4.96486 6.22811 0.64763 8.78664 0 9.15214L0.000192627 2.57317Z" fill="#3C5AF6"/>
<path d="M0.00278274 9.15082C0.0675119 9.12499 4.65138 6.15466 8.63699 7.87166C12.6226 9.58866 19.0598 7.05354 18.9996 7.14096C18.9394 7.22837 18.9996 10.3983 18.9996 10.3983C18.9996 10.3983 18.9996 12.807 18.9996 12.964C18.9996 13.121 12.6345 16.4551 8.63699 13.867C4.63953 11.279 0.681243 14.6481 0.00370599 15L0.00278274 9.15082Z" fill="#FFF96A"/>
</svg>
