<svg width="69" height="34" viewBox="0 0 69 34" fill="none" xmlns="http://www.w3.org/2000/svg">
<path d="M19.8266 10.5262C21.0338 11.1955 21.0338 12.9441 19.8266 13.6134L8.45301 19.9191C7.28835 20.5648 5.86328 19.7154 5.86328 18.3755V5.76417C5.86328 4.42425 7.28835 3.57485 8.45301 4.22056L19.8266 10.5262Z" fill="#34F5C6"/>
<path d="M13.9633 13.7706C15.1705 14.4399 15.1705 16.1885 13.9633 16.8578L2.58973 23.1634C1.42507 23.8091 0 22.9598 0 21.6198V9.00852C0 7.6686 1.42507 6.81921 2.58973 7.46492L13.9633 13.7706Z" fill="#1DCDFE"/>
<path d="M19.8266 16.9591C21.0338 17.6284 21.0338 19.377 19.8266 20.0463L8.45301 26.352C7.28835 26.9977 5.86328 26.1482 5.86328 24.8084V12.197C5.86328 10.8571 7.28835 10.0077 8.45301 10.6534L19.8266 16.9591Z" fill="#21D0B3"/>
<path d="M13.9726 13.7249C15.1777 14.3947 15.1777 16.1404 13.9726 16.8102L8.46062 19.8744C7.2959 20.5218 5.86914 19.6725 5.86914 18.3317V12.2034C5.86914 10.8626 7.2959 10.0133 8.46062 10.6608L13.9726 13.7249Z" fill="#006CA9"/>
<path d="M31.719 5.9C32.863 5.9 33.8033 6.134 34.54 6.602C35.2767 7.06133 35.6537 7.746 35.671 8.656V8.812H32.98V8.76C32.98 8.5 32.8847 8.28333 32.694 8.11C32.5033 7.93667 32.213 7.85 31.823 7.85C31.4417 7.85 31.147 7.90633 30.939 8.019C30.7397 8.13167 30.64 8.27033 30.64 8.435C30.64 8.669 30.7787 8.84233 31.056 8.955C31.3333 9.06767 31.7797 9.18467 32.395 9.306C33.1143 9.45333 33.7037 9.60933 34.163 9.774C34.631 9.93 35.0383 10.19 35.385 10.554C35.7317 10.918 35.9093 11.412 35.918 12.036C35.918 13.0933 35.5583 13.8777 34.839 14.389C34.1283 14.9003 33.175 15.156 31.979 15.156C30.5837 15.156 29.496 14.922 28.716 14.454C27.9447 13.986 27.559 13.1583 27.559 11.971H30.276C30.276 12.4217 30.393 12.725 30.627 12.881C30.861 13.0283 31.225 13.102 31.719 13.102C32.083 13.102 32.382 13.063 32.616 12.985C32.8587 12.907 32.98 12.7467 32.98 12.504C32.98 12.2873 32.8457 12.127 32.577 12.023C32.317 11.9103 31.888 11.7933 31.29 11.672C30.562 11.516 29.9597 11.3557 29.483 11.191C29.0063 11.0177 28.5903 10.736 28.235 10.346C27.8797 9.956 27.702 9.42733 27.702 8.76C27.702 7.78067 28.079 7.06133 28.833 6.602C29.5957 6.134 30.5577 5.9 31.719 5.9ZM42.3618 8.344V15H39.4888V8.344H36.5508V6.056H45.2868V8.344H42.3618ZM51.57 15L51.193 13.739H48.06L47.683 15H44.745L48.008 6.056H51.349L54.612 15H51.57ZM48.658 11.737H50.595L49.659 8.552H49.607L48.658 11.737ZM64.0542 8.799C64.0542 9.345 63.9068 9.839 63.6122 10.281C63.3175 10.723 62.8885 11.048 62.3252 11.256L64.3142 15H61.0902L59.5042 11.737H58.4382V15H55.5652V6.056H61.0382C61.6795 6.056 62.2255 6.18167 62.6762 6.433C63.1355 6.67567 63.4778 7.00933 63.7032 7.434C63.9372 7.85 64.0542 8.305 64.0542 8.799ZM61.1292 8.916C61.1292 8.682 61.0512 8.487 60.8952 8.331C60.7392 8.175 60.5485 8.097 60.3232 8.097H58.4382V9.748H60.3232C60.5485 9.748 60.7392 9.67 60.8952 9.514C61.0512 9.34933 61.1292 9.15 61.1292 8.916ZM36.867 24.399C36.867 25.621 36.4813 26.5527 35.71 27.194C34.9387 27.8353 33.8423 28.156 32.421 28.156C30.9997 28.156 29.899 27.8353 29.119 27.194C28.3477 26.5527 27.962 25.621 27.962 24.399V19.056H30.835V24.36C30.835 24.8627 30.9693 25.2657 31.238 25.569C31.5067 25.8637 31.8967 26.011 32.408 26.011C32.9193 26.011 33.3093 25.8593 33.578 25.556C33.8553 25.2527 33.994 24.854 33.994 24.36V19.056H36.867V24.399ZM43.6791 19.056C44.2338 19.056 44.7278 19.186 45.1611 19.446C45.5944 19.6973 45.9324 20.0483 46.1751 20.499C46.4178 20.941 46.5391 21.4393 46.5391 21.994V22.163C46.5391 22.7177 46.4178 23.2203 46.1751 23.671C45.9324 24.1217 45.5944 24.477 45.1611 24.737C44.7278 24.9883 44.2338 25.114 43.6791 25.114H41.5341V28H38.6611V19.056H43.6791ZM41.5341 23.021H42.7171C43.0204 23.021 43.2458 22.943 43.3931 22.787C43.5491 22.631 43.6271 22.4187 43.6271 22.15V22.046C43.6271 21.7687 43.5491 21.5563 43.3931 21.409C43.2458 21.253 43.0204 21.175 42.7171 21.175H41.5341V23.021Z" fill="#004A74"/>
</svg>
