<svg width="71" height="72" viewBox="0 0 71 72" fill="none" xmlns="http://www.w3.org/2000/svg">
<g clip-path="url(#clip0_4_9)">
<path d="M26.8774 56.8357C27.7409 56.8357 28.4507 57.0135 29.0067 57.3695C29.5628 57.7194 29.8473 58.2401 29.8604 58.9326V59.0511H27.8292V59.0119C27.8292 58.814 27.7572 58.6489 27.6133 58.5173C27.4694 58.3852 27.2502 58.3194 26.9559 58.3194C26.668 58.3194 26.4456 58.3623 26.2886 58.4478C26.1381 58.5336 26.0629 58.6391 26.0629 58.7646C26.0629 58.9424 26.1676 59.0744 26.3769 59.1602C26.5863 59.2457 26.9231 59.3348 27.3876 59.4271C27.9306 59.5391 28.3754 59.6581 28.7221 59.7832C29.0754 59.9021 29.3829 60.0999 29.6445 60.3767C29.9062 60.6538 30.0403 61.0294 30.0469 61.5044C30.0469 62.3088 29.7754 62.9056 29.2324 63.2947C28.696 63.6839 27.9764 63.8784 27.0736 63.8784C26.0204 63.8784 25.1994 63.7002 24.6106 63.3442C24.0284 62.9882 23.7373 62.3583 23.7373 61.455H25.7882C25.7882 61.7979 25.8765 62.0288 26.0531 62.1474C26.2297 62.2594 26.5045 62.3154 26.8774 62.3154C27.1521 62.3154 27.3778 62.2859 27.5544 62.2267C27.7376 62.167 27.8292 62.0452 27.8292 61.8604C27.8292 61.6957 27.7278 61.5735 27.525 61.4946C27.3287 61.4088 27.0049 61.3197 26.5535 61.2273C26.004 61.1087 25.5494 60.9869 25.1896 60.8614C24.8298 60.7294 24.5158 60.5152 24.2476 60.2185C23.9793 59.9217 23.8452 59.5195 23.8452 59.0119C23.8452 58.2667 24.1298 57.7194 24.6989 57.3695C25.2746 57.0135 26.0007 56.8357 26.8774 56.8357ZM34.9108 58.6951V63.7599H32.7422V58.6951H30.5245V56.9542H37.1186V58.6951H34.9108ZM41.8613 63.7599L41.5767 62.8002H39.2119L38.9273 63.7599H36.7097L39.1727 56.9542H41.6947L44.1576 63.7599H41.8613ZM39.6633 61.2767H41.1254L40.4189 58.8533H40.3796L39.6633 61.2767ZM51.2847 59.0413C51.2847 59.457 51.1732 59.8326 50.951 60.169C50.7284 60.5054 50.4048 60.7527 49.9795 60.9109L51.481 63.7599H49.0473L47.8503 61.2767H47.0454V63.7599H44.8769V56.9542H49.008C49.4921 56.9542 49.9045 57.0499 50.2447 57.2411C50.5914 57.4259 50.8497 57.6797 51.0196 58.0026C51.1964 58.3194 51.2847 58.6656 51.2847 59.0413ZM49.0769 59.1304C49.0769 58.9522 49.0181 58.8038 48.9001 58.6853C48.7825 58.5667 48.6386 58.507 48.4683 58.507H47.0454V59.7635H48.4683C48.6386 59.7635 48.7825 59.7043 48.9001 59.5853C49.0181 59.4603 49.0769 59.3086 49.0769 59.1304ZM30.7632 68.6224C30.7632 69.5523 30.4721 70.2611 29.8899 70.7491C29.3076 71.2372 28.4801 71.4812 27.4072 71.4812C26.3344 71.4812 25.5036 71.2372 24.9148 70.7491C24.3326 70.2611 24.0415 69.5523 24.0415 68.6224V64.557H26.2101V68.593C26.2101 68.9752 26.3115 69.2821 26.5143 69.5127C26.7171 69.7371 27.0115 69.8491 27.3974 69.8491C27.7834 69.8491 28.0778 69.7338 28.2806 69.5029C28.4899 69.2719 28.5946 68.9686 28.5946 68.593V64.557H30.7632V68.6224ZM35.9051 64.557C36.3238 64.557 36.6967 64.6559 37.0238 64.8537C37.3509 65.045 37.606 65.3119 37.7891 65.6549C37.9723 65.9913 38.0639 66.3706 38.0639 66.7924V66.9212C38.0639 67.343 37.9723 67.7256 37.7891 68.0685C37.606 68.4115 37.3509 68.6817 37.0238 68.8795C36.6967 69.0708 36.3238 69.1664 35.9051 69.1664H34.286V71.3627H32.1174V64.557H35.9051ZM34.286 67.574H35.179C35.4079 67.574 35.578 67.5147 35.6892 67.3957C35.807 67.2772 35.8659 67.1157 35.8659 66.9114V66.8321C35.8659 66.6212 35.807 66.4597 35.6892 66.3473C35.578 66.2288 35.4079 66.1695 35.179 66.1695H34.286V67.574Z" fill="#004A74"/>
<path d="M53.0615 19.6655C55.5824 21.0632 55.5824 24.7147 53.0615 26.1123L29.3108 39.28C26.8787 40.6284 23.9028 38.8547 23.9028 36.0566V9.72122C23.9028 6.92316 26.8787 5.14943 29.3108 6.49781L53.0615 19.6655Z" fill="#34F5C6"/>
<path d="M40.8164 26.4405C43.3372 27.8381 43.3372 31.4897 40.8164 32.8873L17.0657 46.0548C14.6336 47.4033 11.6577 45.6297 11.6577 42.8314V16.4962C11.6577 13.6982 14.6336 11.9244 17.0657 13.2728L40.8164 26.4405Z" fill="#1DCDFE"/>
<path d="M53.0615 33.0989C55.5824 34.4965 55.5824 38.148 53.0615 39.5457L29.3108 52.7134C26.8787 54.0619 23.9028 52.2879 23.9028 49.49V23.1546C23.9028 20.3565 26.8787 18.5828 29.3108 19.9312L53.0615 33.0989Z" fill="#21D0B3"/>
<path d="M40.8356 26.3452C43.352 27.7439 43.352 31.3893 40.8356 32.788L29.3252 39.1867C26.893 40.5387 23.9136 38.7652 23.9136 35.9653V23.1679C23.9136 20.3681 26.893 18.5945 29.3252 19.9465L40.8356 26.3452Z" fill="#006CA9"/>
</g>
<defs>
<clipPath id="clip0_4_9">
<rect width="71" height="71" fill="white" transform="translate(0 0.5)"/>
</clipPath>
</defs>
</svg>
