<svg width="64" height="65" viewBox="0 0 64 65" fill="none" xmlns="http://www.w3.org/2000/svg">
<path d="M8 55.2787V10.4787C8 9.59501 8.71635 8.87866 9.6 8.87866H54.4C55.2837 8.87866 56 9.59501 56 10.4787V55.2787C56 56.1624 55.2837 56.8787 54.4 56.8787H9.6C8.71635 56.8787 8 56.1624 8 55.2787Z" stroke="#3A3A3A" stroke-width="4"/>
<path d="M32 44.5881V50.2121M40 23.5454C38.1733 21.7188 34.9565 20.4482 32 20.3687L40 23.5454ZM24 40.8787C25.7186 43.1702 28.9141 44.4771 32 44.5881L24 40.8787ZM32 20.3687C28.4824 20.274 25.3333 21.8654 25.3333 26.2121C25.3333 34.2121 40 30.2121 40 38.2121C40 42.7747 36.0965 44.7353 32 44.5881V20.3687ZM32 20.3687V15.5454V20.3687Z" stroke="#3A3A3A" stroke-width="4" stroke-linecap="round" stroke-linejoin="round"/>
</svg>
