<svg width="64" height="64" viewBox="0 0 64 64" fill="none" xmlns="http://www.w3.org/2000/svg">
<path d="M16 48.0267L16.0267 47.9971" stroke="#3A3A3A" stroke-width="4" stroke-linecap="round" stroke-linejoin="round"/>
<path d="M16 16.0267L16.0267 15.9971" stroke="#3A3A3A" stroke-width="4" stroke-linecap="round" stroke-linejoin="round"/>
<path d="M5.33301 25.0667V6.93337C5.33301 6.04972 6.04935 5.33337 6.93301 5.33337H57.0663C57.9501 5.33337 58.6663 6.04972 58.6663 6.93337V25.0667C58.6663 25.9504 57.9501 26.6667 57.0663 26.6667H6.93301C6.04935 26.6667 5.33301 25.9504 5.33301 25.0667Z" stroke="#3A3A3A" stroke-width="4"/>
<path d="M5.33301 57.0667V38.9334C5.33301 38.0496 6.04935 37.3334 6.93301 37.3334H57.0663C57.9501 37.3334 58.6663 38.0496 58.6663 38.9334V57.0667C58.6663 57.9504 57.9501 58.6667 57.0663 58.6667H6.93301C6.04935 58.6667 5.33301 57.9504 5.33301 57.0667Z" stroke="#3A3A3A" stroke-width="4"/>
</svg>
