<svg width="16" height="16" viewBox="0 0 16 16" fill="none" xmlns="http://www.w3.org/2000/svg">
<g clip-path="url(#clip0_1412_413)">
<mask id="path-1-inside-1_1412_413" fill="white">
<path d="M7.85423 0C6.56956 0.0186667 3.80956 0.229333 2.26756 1.64467C1.12223 2.79133 0.718229 4.46667 0.676229 6.54467C0.634229 8.622 0.579562 12.5173 4.33423 13.5733H4.33623L4.33356 15.184C4.33356 15.184 4.3089 15.8353 4.74023 15.9687C5.25823 16.13 5.56289 15.6353 6.06023 15.1007C6.33156 14.8073 6.70823 14.378 6.99156 14.0473C9.55823 14.2647 11.5329 13.77 11.7582 13.6973C12.2756 13.5293 15.2089 13.1533 15.6862 9.25933C16.1796 5.246 15.4462 2.706 14.1262 1.562C13.7289 1.19533 12.1222 0.0286667 8.54289 0.0133333C8.54289 0.0133333 8.27956 -0.00333333 7.85156 0.002L7.85423 0ZM7.89289 1.12867C8.25623 1.126 8.47956 1.14 8.47956 1.14C11.5076 1.15333 12.9576 2.06533 13.2942 2.37067C14.4109 3.32733 14.9809 5.616 14.5649 8.96867V8.97C14.1622 12.222 11.7822 12.426 11.3436 12.5667C11.1569 12.6267 9.42223 13.058 7.24156 12.916C7.24156 12.916 5.61756 14.876 5.11023 15.3853C5.03023 15.4653 4.9369 15.4967 4.87556 15.4813C4.7889 15.4593 4.7649 15.356 4.76556 15.2053L4.7789 12.5267C1.60423 11.6467 1.7889 8.332 1.82556 6.59667C1.86156 4.86067 2.18756 3.438 3.15623 2.48133C4.4629 1.29933 6.80556 1.136 7.89623 1.128L7.89289 1.12867ZM8.14623 2.86333C8.09454 2.86594 8.04581 2.88822 8.01003 2.92561C7.97424 2.963 7.95412 3.01266 7.95377 3.06441C7.95343 3.11616 7.9729 3.16608 8.00819 3.20394C8.04348 3.24179 8.09191 3.26471 8.14356 3.268C9.22623 3.27467 10.1076 3.626 10.8289 4.32933C11.5442 5.02667 11.9089 5.97467 11.9176 7.21867C11.9189 7.33 12.0109 7.41867 12.1222 7.41867C12.1755 7.41797 12.2264 7.3963 12.2638 7.35837C12.3012 7.32044 12.3222 7.26929 12.3222 7.216C12.3129 5.89333 11.9102 4.81867 11.1116 4.04C10.3182 3.26667 9.31689 2.87133 8.14689 2.86333H8.14623ZM5.50623 3.32667C5.36449 3.30704 5.22023 3.33444 5.09556 3.40467L5.0889 3.406C4.80223 3.57067 4.5449 3.78067 4.3249 4.02733C4.32356 4.03 4.3209 4.03 4.31956 4.03267C4.14156 4.248 4.03956 4.458 4.0129 4.66467C4.00767 4.69549 4.00611 4.72681 4.00823 4.758C4.00823 4.84867 4.0229 4.938 4.05156 5.02467L4.06023 5.03133C4.15023 5.35133 4.37556 5.882 4.86356 6.76733C5.14356 7.27933 5.46556 7.76733 5.82756 8.22467C6.00756 8.454 6.20089 8.67333 6.40756 8.88067L6.49556 8.96867C6.70223 9.174 6.92223 9.36867 7.15156 9.54867C7.60927 9.91074 8.09679 10.2334 8.60889 10.5133C9.49423 11.002 10.0262 11.2267 10.3449 11.3173L10.3516 11.3267C10.4675 11.3646 10.5903 11.3771 10.7116 11.3633C10.9182 11.3393 11.1296 11.2367 11.3436 11.0567C11.3462 11.0567 11.3456 11.0553 11.3489 11.0533C11.5956 10.8333 11.8042 10.5733 11.9689 10.288L11.9709 10.2813C12.1209 9.99333 12.0709 9.72 11.8509 9.53467C11.8482 9.53467 11.3856 9.148 11.1596 8.98133C10.9196 8.81133 10.6729 8.65333 10.4176 8.508C10.0776 8.318 9.72956 8.43733 9.58556 8.624L9.28756 9C9.13423 9.18867 8.84956 9.164 8.84956 9.164C6.76956 8.63333 6.21289 6.52733 6.21289 6.52733C6.21289 6.52733 6.18823 6.24333 6.37823 6.09L6.75356 5.79133C6.93823 5.648 7.05756 5.3 6.86689 4.95933C6.7221 4.70353 6.56411 4.45541 6.39356 4.216C6.21452 3.98172 6.03003 3.75165 5.84023 3.526C5.75663 3.42131 5.63757 3.35087 5.50556 3.328L5.50623 3.32667ZM8.49956 3.91333C8.44599 3.91174 8.39398 3.9315 8.35497 3.96826C8.31596 4.00501 8.29315 4.05576 8.29156 4.10933C8.28997 4.16291 8.30973 4.21492 8.34648 4.25393C8.38324 4.29293 8.43399 4.31574 8.48756 4.31733C9.26089 4.374 9.83223 4.628 10.2509 5.084C10.6709 5.54267 10.8709 6.1 10.8549 6.79733C10.8578 6.8486 10.8799 6.89689 10.9169 6.93255C10.9538 6.96821 11.0029 6.98863 11.0542 6.98973C11.1056 6.99082 11.1554 6.97251 11.1939 6.93845C11.2323 6.9044 11.2565 6.8571 11.2616 6.806C11.2782 6.02267 11.0389 5.344 10.5502 4.81C10.0569 4.27 9.36556 3.97467 8.51689 3.91267H8.50089L8.49956 3.91333ZM8.80823 5C8.7569 5.00075 8.70775 5.0209 8.67065 5.05639C8.63355 5.09187 8.61125 5.14008 8.60823 5.19133C8.60289 5.30267 8.68823 5.398 8.80023 5.40467C9.1489 5.42333 9.38356 5.52133 9.54223 5.686C9.70223 5.84933 9.80089 6.09933 9.81956 6.462C9.82643 6.51226 9.85189 6.55813 9.89093 6.59053C9.92997 6.62293 9.97973 6.63951 10.0304 6.63699C10.0811 6.63448 10.129 6.61306 10.1646 6.57696C10.2002 6.54085 10.221 6.4927 10.2229 6.442C10.2029 6.01267 10.0796 5.65667 9.83623 5.404C9.59156 5.152 9.24089 5.02133 8.82289 4.99933H8.81089L8.80823 5Z"/>
</mask>
<path d="M7.85423 0C6.56956 0.0186667 3.80956 0.229333 2.26756 1.64467C1.12223 2.79133 0.718229 4.46667 0.676229 6.54467C0.634229 8.622 0.579562 12.5173 4.33423 13.5733H4.33623L4.33356 15.184C4.33356 15.184 4.3089 15.8353 4.74023 15.9687C5.25823 16.13 5.56289 15.6353 6.06023 15.1007C6.33156 14.8073 6.70823 14.378 6.99156 14.0473C9.55823 14.2647 11.5329 13.77 11.7582 13.6973C12.2756 13.5293 15.2089 13.1533 15.6862 9.25933C16.1796 5.246 15.4462 2.706 14.1262 1.562C13.7289 1.19533 12.1222 0.0286667 8.54289 0.0133333C8.54289 0.0133333 8.27956 -0.00333333 7.85156 0.002L7.85423 0ZM7.89289 1.12867C8.25623 1.126 8.47956 1.14 8.47956 1.14C11.5076 1.15333 12.9576 2.06533 13.2942 2.37067C14.4109 3.32733 14.9809 5.616 14.5649 8.96867V8.97C14.1622 12.222 11.7822 12.426 11.3436 12.5667C11.1569 12.6267 9.42223 13.058 7.24156 12.916C7.24156 12.916 5.61756 14.876 5.11023 15.3853C5.03023 15.4653 4.9369 15.4967 4.87556 15.4813C4.7889 15.4593 4.7649 15.356 4.76556 15.2053L4.7789 12.5267C1.60423 11.6467 1.7889 8.332 1.82556 6.59667C1.86156 4.86067 2.18756 3.438 3.15623 2.48133C4.4629 1.29933 6.80556 1.136 7.89623 1.128L7.89289 1.12867ZM8.14623 2.86333C8.09454 2.86594 8.04581 2.88822 8.01003 2.92561C7.97424 2.963 7.95412 3.01266 7.95377 3.06441C7.95343 3.11616 7.9729 3.16608 8.00819 3.20394C8.04348 3.24179 8.09191 3.26471 8.14356 3.268C9.22623 3.27467 10.1076 3.626 10.8289 4.32933C11.5442 5.02667 11.9089 5.97467 11.9176 7.21867C11.9189 7.33 12.0109 7.41867 12.1222 7.41867C12.1755 7.41797 12.2264 7.3963 12.2638 7.35837C12.3012 7.32044 12.3222 7.26929 12.3222 7.216C12.3129 5.89333 11.9102 4.81867 11.1116 4.04C10.3182 3.26667 9.31689 2.87133 8.14689 2.86333H8.14623ZM5.50623 3.32667C5.36449 3.30704 5.22023 3.33444 5.09556 3.40467L5.0889 3.406C4.80223 3.57067 4.5449 3.78067 4.3249 4.02733C4.32356 4.03 4.3209 4.03 4.31956 4.03267C4.14156 4.248 4.03956 4.458 4.0129 4.66467C4.00767 4.69549 4.00611 4.72681 4.00823 4.758C4.00823 4.84867 4.0229 4.938 4.05156 5.02467L4.06023 5.03133C4.15023 5.35133 4.37556 5.882 4.86356 6.76733C5.14356 7.27933 5.46556 7.76733 5.82756 8.22467C6.00756 8.454 6.20089 8.67333 6.40756 8.88067L6.49556 8.96867C6.70223 9.174 6.92223 9.36867 7.15156 9.54867C7.60927 9.91074 8.09679 10.2334 8.60889 10.5133C9.49423 11.002 10.0262 11.2267 10.3449 11.3173L10.3516 11.3267C10.4675 11.3646 10.5903 11.3771 10.7116 11.3633C10.9182 11.3393 11.1296 11.2367 11.3436 11.0567C11.3462 11.0567 11.3456 11.0553 11.3489 11.0533C11.5956 10.8333 11.8042 10.5733 11.9689 10.288L11.9709 10.2813C12.1209 9.99333 12.0709 9.72 11.8509 9.53467C11.8482 9.53467 11.3856 9.148 11.1596 8.98133C10.9196 8.81133 10.6729 8.65333 10.4176 8.508C10.0776 8.318 9.72956 8.43733 9.58556 8.624L9.28756 9C9.13423 9.18867 8.84956 9.164 8.84956 9.164C6.76956 8.63333 6.21289 6.52733 6.21289 6.52733C6.21289 6.52733 6.18823 6.24333 6.37823 6.09L6.75356 5.79133C6.93823 5.648 7.05756 5.3 6.86689 4.95933C6.7221 4.70353 6.56411 4.45541 6.39356 4.216C6.21452 3.98172 6.03003 3.75165 5.84023 3.526C5.75663 3.42131 5.63757 3.35087 5.50556 3.328L5.50623 3.32667ZM8.49956 3.91333C8.44599 3.91174 8.39398 3.9315 8.35497 3.96826C8.31596 4.00501 8.29315 4.05576 8.29156 4.10933C8.28997 4.16291 8.30973 4.21492 8.34648 4.25393C8.38324 4.29293 8.43399 4.31574 8.48756 4.31733C9.26089 4.374 9.83223 4.628 10.2509 5.084C10.6709 5.54267 10.8709 6.1 10.8549 6.79733C10.8578 6.8486 10.8799 6.89689 10.9169 6.93255C10.9538 6.96821 11.0029 6.98863 11.0542 6.98973C11.1056 6.99082 11.1554 6.97251 11.1939 6.93845C11.2323 6.9044 11.2565 6.8571 11.2616 6.806C11.2782 6.02267 11.0389 5.344 10.5502 4.81C10.0569 4.27 9.36556 3.97467 8.51689 3.91267H8.50089L8.49956 3.91333ZM8.80823 5C8.7569 5.00075 8.70775 5.0209 8.67065 5.05639C8.63355 5.09187 8.61125 5.14008 8.60823 5.19133C8.60289 5.30267 8.68823 5.398 8.80023 5.40467C9.1489 5.42333 9.38356 5.52133 9.54223 5.686C9.70223 5.84933 9.80089 6.09933 9.81956 6.462C9.82643 6.51226 9.85189 6.55813 9.89093 6.59053C9.92997 6.62293 9.97973 6.63951 10.0304 6.63699C10.0811 6.63448 10.129 6.61306 10.1646 6.57696C10.2002 6.54085 10.221 6.4927 10.2229 6.442C10.2029 6.01267 10.0796 5.65667 9.83623 5.404C9.59156 5.152 9.24089 5.02133 8.82289 4.99933H8.81089L8.80823 5Z" stroke="#745EE3" stroke-width="2" mask="url(#path-1-inside-1_1412_413)"/>
</g>
<defs>
<clipPath id="clip0_1412_413">
<rect width="16" height="16" fill="white"/>
</clipPath>
</defs>
</svg>
