<svg width="45" height="44" viewBox="0 0 45 44" fill="none" xmlns="http://www.w3.org/2000/svg">
<path fill-rule="evenodd" clip-rule="evenodd" d="M22.638 1.13935C21.0946 1.53227 19.8585 2.83991 19.5299 4.42721C19.4622 4.75444 19.4218 6.17681 19.4218 8.24043V11.5318L12.9175 11.5591L6.41311 11.5864L5.97379 11.8084C5.25999 12.1693 4.76873 12.6694 4.42503 13.3855L4.10898 14.044L4.08344 25.3952L4.05781 36.7466H2.91189C1.64308 36.7466 1.38943 36.8199 1.13608 37.2599C0.995332 37.5042 0.974787 37.6835 1.02452 38.2327C1.18869 40.0449 2.2652 41.6653 3.82202 42.4439C4.99866 43.0324 3.89345 42.9997 22.59 42.9997H39.823L40.4434 42.77C41.6255 42.3325 42.4757 41.6732 43.0978 40.7118C43.8366 39.5702 44.2068 37.8759 43.852 37.2599C43.5986 36.8198 43.345 36.7466 42.0746 36.7466H40.9271V28.4825V20.2185L41.2104 20.1547C41.6442 20.0569 42.5805 19.394 42.9658 18.9117C43.3909 18.3795 43.7652 17.6295 43.8959 17.0476C44.0375 16.4171 44.0333 5.11368 43.8912 4.42721C43.5524 2.79077 42.2538 1.45871 40.6583 1.11119C39.9014 0.946344 23.2943 0.972342 22.638 1.13935ZM40.4188 3.21657C41.0702 3.415 41.6452 4.00476 41.8386 4.67291C42.0466 5.39127 42.0542 15.9905 41.8472 16.6958C41.6546 17.3522 41.2679 17.8233 40.6983 18.0953L40.207 18.3299L35.4724 18.3309C32.1453 18.3316 30.6777 18.3649 30.5356 18.4429C30.4245 18.5039 29.2008 19.5231 27.8163 20.7078C26.4319 21.8924 25.2728 22.8617 25.2406 22.8617C25.2085 22.8617 25.1822 21.9819 25.1822 20.9066C25.1822 18.976 25.1793 18.9482 24.9503 18.6949C24.6859 18.4023 24.5216 18.3539 23.6323 18.3077C22.8123 18.2652 22.1945 17.8979 21.7765 17.2046L21.486 16.7227L21.4583 10.9677C21.4268 4.428 21.4214 4.48718 22.121 3.7696C22.8182 3.05438 22.4263 3.08294 31.6691 3.07526C38.7614 3.06935 40.0011 3.08934 40.4188 3.21657ZM25.3668 7.09823C24.9101 7.56667 25.0097 8.3778 25.5652 8.71439C25.8098 8.86259 26.4018 8.87835 31.7105 8.87835C37.0193 8.87835 37.6113 8.86259 37.8559 8.71439C38.4113 8.3778 38.511 7.56667 38.0543 7.09823L37.7737 6.81039H31.7105H25.6474L25.3668 7.09823ZM25.6985 12.6634C25.3036 12.8397 25.0862 13.1741 25.0862 13.6051C25.0862 14.0447 25.3068 14.3741 25.7197 14.5511C26.2184 14.7647 31.7001 14.7494 32.1447 14.533C32.4379 14.3902 32.7666 13.8998 32.7666 13.6051C32.7666 13.5402 32.6984 13.3399 32.6152 13.1598C32.3331 12.5503 32.1648 12.5214 28.9119 12.5257C26.6745 12.5287 25.9286 12.5607 25.6985 12.6634ZM19.4242 15.1068C19.4255 15.9327 19.4702 16.8031 19.5237 17.0407C19.8838 18.643 21.2925 20.0613 22.8016 20.3411L23.1571 20.407L23.1856 23.0053C23.214 25.5968 23.2146 25.6041 23.4454 25.8559C23.6937 26.1268 24.1782 26.2686 24.4989 26.1642C24.6075 26.1289 26.1975 24.8169 28.0322 23.2488L31.3681 20.3976L35.1155 20.4234L38.8629 20.4491V28.5732V36.6973L29.9652 36.7224L21.0674 36.7475L21.0367 34.6052C21.0086 32.6503 20.9876 32.4223 20.7967 31.9984C20.4847 31.3057 19.8031 30.6138 19.1083 30.2847L18.5098 30.0011H15.1496C11.8549 30.0011 11.7787 30.0055 11.2362 30.2301C10.6067 30.4909 9.8455 31.1934 9.55527 31.7817C9.23855 32.4235 9.14927 33.1275 9.14927 34.9814V36.7516L7.63718 36.7244L6.12509 36.6973V25.5697C6.12509 14.6951 6.12932 14.4356 6.3125 14.1582C6.67857 13.6037 6.56009 13.6132 13.2535 13.609L19.4218 13.6051L19.4242 15.1068ZM14.071 20.0593C12.3725 20.5284 11.1426 21.921 10.8778 23.6749C10.4419 26.5628 12.9413 29.111 15.7736 28.6661C18.0887 28.3025 19.7109 26.0286 19.3521 23.6504C18.9663 21.0943 16.4698 19.3967 14.071 20.0593ZM15.7322 22.1203C17.7046 22.7239 17.9433 25.4416 16.105 26.3642C15.6608 26.5871 15.488 26.6206 14.9597 26.5861C14.2282 26.5382 13.7013 26.2185 13.2366 25.5403C12.6001 24.6114 12.8758 23.1239 13.8063 22.4673C14.1825 22.2017 14.6937 22.0125 15.1081 21.9853C15.191 21.9799 15.4718 22.0406 15.7322 22.1203ZM18.4436 32.3178C18.975 32.65 19.0457 32.9754 19.016 34.9517L18.9898 36.6973L15.1256 36.723L11.2614 36.7488V34.8718C11.2614 33.389 11.2919 32.9342 11.4066 32.7068C11.6913 32.142 11.7895 32.1265 15.1016 32.1226C17.9692 32.1192 18.1422 32.1293 18.4436 32.3178ZM41.5935 39.2195C41.2936 39.8225 40.6166 40.4462 40.0086 40.6795C39.4819 40.8817 39.4123 40.8825 22.494 40.8825C5.57575 40.8825 5.50615 40.8817 4.97946 40.6795C4.37146 40.4462 3.69443 39.8225 3.39451 39.2195L3.19299 38.8145H22.494H41.7951L41.5935 39.2195Z" fill="#3A3A3A" stroke="#3A3A3A" stroke-width="0.5"/>
</svg>
