<svg width="461" height="135" viewBox="0 0 461 135" fill="none" xmlns="http://www.w3.org/2000/svg">
<rect width="461" height="135" fill="#E3E3E3"/>
<path d="M306.996 61.4943C306.803 60.7784 306.519 60.1477 306.144 59.6023C305.769 59.0455 305.309 58.5739 304.763 58.1875C304.218 57.8011 303.593 57.5114 302.888 57.3182C302.184 57.1136 301.411 57.0114 300.57 57.0114C298.877 57.0114 297.411 57.4205 296.173 58.2386C294.945 59.0568 293.996 60.25 293.326 61.8182C292.656 63.375 292.32 65.267 292.32 67.4943C292.32 69.733 292.644 71.642 293.292 73.2216C293.94 74.8011 294.877 76.0057 296.104 76.8352C297.332 77.6648 298.82 78.0795 300.57 78.0795C302.116 78.0795 303.423 77.8295 304.491 77.3295C305.57 76.8182 306.388 76.0966 306.945 75.1648C307.502 74.233 307.781 73.1364 307.781 71.875L309.349 72.0625H300.86V65.9091H315.911V70.5284C315.911 73.6534 315.246 76.3295 313.917 78.5568C312.599 80.7841 310.781 82.4943 308.462 83.6875C306.156 84.8807 303.502 85.4773 300.502 85.4773C297.173 85.4773 294.246 84.7557 291.724 83.3125C289.201 81.8693 287.235 79.8125 285.826 77.142C284.417 74.4602 283.712 71.2784 283.712 67.5966C283.712 64.733 284.138 62.1932 284.991 59.9773C285.843 57.75 287.031 55.8636 288.553 54.3182C290.087 52.7727 291.86 51.6023 293.871 50.8068C295.894 50.0114 298.07 49.6136 300.4 49.6136C302.423 49.6136 304.303 49.9034 306.042 50.483C307.792 51.0625 309.337 51.8807 310.678 52.9375C312.031 53.9943 313.127 55.25 313.968 56.7045C314.809 58.1591 315.332 59.7557 315.536 61.4943H306.996ZM320.884 85V50.0909H335.305C337.918 50.0909 340.174 50.5625 342.072 51.5057C343.981 52.4375 345.452 53.7784 346.487 55.5284C347.521 57.267 348.038 59.3295 348.038 61.7159C348.038 64.1364 347.509 66.1932 346.452 67.8864C345.396 69.5682 343.896 70.8523 341.952 71.7386C340.009 72.6136 337.708 73.0511 335.049 73.0511H325.93V66.4034H333.481C334.754 66.4034 335.816 66.2386 336.668 65.9091C337.532 65.5682 338.185 65.0568 338.629 64.375C339.072 63.6818 339.293 62.7955 339.293 61.7159C339.293 60.6364 339.072 59.7443 338.629 59.0398C338.185 58.3239 337.532 57.7898 336.668 57.4375C335.805 57.0739 334.742 56.892 333.481 56.892H329.322V85H320.884ZM340.538 69.0455L349.231 85H340.026L331.504 69.0455H340.538ZM360.217 85H351.148L362.927 50.0909H374.16L385.938 85H376.87L368.671 58.8864H368.398L360.217 85ZM359.006 71.2614H377.961V77.6705H359.006V71.2614ZM419.407 50.0909V85H412.248L398.356 64.8523H398.134V85H389.697V50.0909H396.958L410.697 70.2045H410.987V50.0909H419.407ZM423.57 56.9432V50.0909H453.076V56.9432H442.491V85H434.173V56.9432H423.57Z" fill="#544F4F"/>
<path d="M156.638 85H147.57L159.349 50.0909H170.582L182.36 85H173.292L165.093 58.8864H164.82L156.638 85ZM155.428 71.2614H174.383V77.6705H155.428V71.2614ZM186.119 85V50.0909H194.556V78.1477H209.079V85H186.119ZM213.447 85V50.0909H237.276V56.9432H221.884V64.1023H235.759V70.9716H221.884V85H213.447ZM244.717 85H235.648L247.427 50.0909H258.66L270.438 85H261.37L253.171 58.8864H252.898L244.717 85ZM243.506 71.2614H262.461V77.6705H243.506V71.2614Z" fill="#FFFEFE"/>
<circle cx="83" cy="66" r="53" fill="#FBFBFB"/>
<path d="M124 55.3846H110.017C107.389 47.6603 96.823 44.0833 86.6163 46.5774C78.0923 48.6602 73.5114 57.5519 74.0079 61.197C73.7597 64.6278 76.437 75.2972 80.0119 78.8994C84.4805 83.4022 89.8049 84.4235 96.823 83.3973C103.284 82.4526 109.272 77.7682 110.017 74.7663H106.6H98.6288V64.9416H112.433H124C124 70.4021 123.654 75.8168 122.64 78.9652C121.626 82.1137 117.986 89.4099 107.03 93.1438C102.697 94.6204 92.3003 97.6115 81.0448 93.7636C72.0405 90.6852 67.2426 86.6843 64.2636 78.9652C61.2845 71.2462 61.6981 61.7149 62.9394 56.9976C63.4359 52.7092 68.1083 39.8731 81.0448 36.2894C93.9813 32.7057 102.878 35.8094 107.256 37.9138C113.406 40.8705 121.352 47.4037 124 55.3846Z" fill="#787575"/>
<rect width="75.4337" height="20.3684" transform="matrix(0.51444 0.857526 -0.806145 0.591718 78.4306 33)" fill="#FFFEFE"/>
<path d="M70.5 38.6501L102.976 93.4001H38.024L70.5 38.6501Z" fill="#3D7B3C"/>
<path d="M70.2549 58.6501L85.1981 83.4877H55.3117L70.2549 58.6501Z" fill="#FFFBFB"/>
<rect width="9.82827" height="24.319" transform="matrix(0.887036 -0.461701 0.514482 0.857501 73.0021 82.2548)" fill="#FFF8F8"/>
</svg>
