<svg width="260" viewBox="0 0 160 24" fill="none" xmlns="http://www.w3.org/2000/svg">
<g clip-path="url(#clip0_4572_24513)">
<path d="M88.3518 5.87664L84.1743 19.6823H80.5767L84.7539 5.87664H88.3518ZM81.2925 8.86609L80.5949 11.1293C80.318 12.0278 79.8027 12.5577 79.0492 12.7191C79.2266 12.765 79.3772 12.8974 79.5001 13.1165C79.6231 13.3352 79.6895 13.5831 79.6992 13.8595C79.7046 14.0206 79.6829 14.182 79.6332 14.3432L78.5104 18.1445C78.2045 19.1699 77.595 19.6823 76.6821 19.6823H64.5359L68.7306 5.91142H79.0946C79.7657 5.91142 80.3187 6.07536 80.7539 6.40371C81.1887 6.73206 81.4165 7.20162 81.4376 7.81194C81.4487 8.13449 81.4004 8.4858 81.2925 8.86609ZM77.3986 9.8451C77.4081 9.79896 77.4121 9.75281 77.4103 9.70667C77.3977 9.34099 77.1164 9.15965 76.5665 9.15965H71.3349L70.8011 10.9048H76.1479C76.5331 10.9048 76.8064 10.8589 76.9685 10.7666C77.0976 10.6887 77.1915 10.5389 77.2502 10.323L77.3986 9.8451ZM75.8292 15.0574C75.8485 14.9769 75.8567 14.8962 75.8538 14.8153C75.8379 14.352 75.5878 14.1187 75.1039 14.1187H69.8229L69.1272 16.4339H74.3254C75.0408 16.4339 75.4773 16.1776 75.6357 15.6679L75.8292 15.0574ZM52.3403 19.6823H48.7923L51.6178 10.231C51.647 10.1157 51.6592 9.99467 51.655 9.86806C51.6386 9.39571 51.4324 9.15965 51.0364 9.15965H46.267C45.629 9.15965 45.2013 9.51675 44.9838 10.231L42.1744 19.6823H38.5768L42.6891 5.91142H63.879C65.1881 5.91142 65.8632 6.49878 65.9037 7.67374C65.9208 8.16904 65.8158 8.79119 65.5885 9.53994L62.5061 19.6823H58.9579L61.7836 10.231C61.8127 10.1157 61.8251 9.99467 61.8208 9.86806C61.8045 9.39571 61.5983 9.15965 61.2023 9.15965H56.4328C55.7948 9.15965 55.3669 9.51675 55.1496 10.231L52.3403 19.6823ZM39.5991 8.65855L36.2666 19.6823H25.193C24.5879 19.6823 24.1295 19.4748 23.8183 19.0602C23.5638 18.7003 23.4274 18.2511 23.4088 17.7097C23.396 17.3382 23.4391 16.9985 23.5384 16.6873L24.8101 12.4109C25.115 11.3714 25.7958 10.8529 26.852 10.8529H35.3345L35.5544 10.0494C35.5841 9.94574 35.5971 9.8509 35.5938 9.75861C35.5801 9.35838 35.3256 9.15965 34.8306 9.15965H25.7706L26.7475 5.91142H37.9035C39.0696 5.91142 39.6738 6.52174 39.7161 7.74284C39.7274 8.06539 39.6884 8.37078 39.5991 8.65855ZM21.1403 10.6282C21.7125 11.5464 22.0454 12.6419 22.0454 13.8163C22.0454 15.4347 21.4184 16.9002 20.4061 17.9601C19.3935 19.0205 17.9894 19.6823 16.4439 19.6823H16.4326H15.7939H3.77367H0.175402L4.31761 5.86226H7.91588L4.90274 15.9151H16.4452C16.9969 15.9151 17.5001 15.6742 17.8613 15.2958C18.2226 14.9178 18.4467 14.3942 18.4467 13.8163C18.4467 13.2359 18.2239 12.7121 17.8649 12.3337L17.8613 12.3372C17.5074 11.9668 17.0206 11.7343 16.4822 11.725H8.85515L9.97868 7.95733H17.8795C18.4312 7.95733 18.9315 7.72267 19.2929 7.34446C19.6544 6.96603 19.8781 6.44267 19.8781 5.86504C19.8781 5.28441 19.6553 4.76012 19.2963 4.38215L19.2929 4.38562C18.9315 4.00742 18.4292 3.76719 17.8777 3.76719H15.3696H1.80168L0.142181 0H17.8591H17.8799C19.4254 0 20.8253 0.661102 21.8374 1.72128V1.7287C22.85 2.78933 23.4768 4.25229 23.4768 5.86504C23.4768 7.48313 22.85 8.94864 21.8374 10.0088C21.6222 10.2342 21.389 10.4415 21.1403 10.6282ZM34.3575 14.1013H28.6807C28.1636 14.1013 27.8307 14.346 27.6828 14.8385L27.489 15.4347C27.4502 15.5872 27.4327 15.7257 27.4372 15.8551C27.4507 16.2409 27.6445 16.4339 28.0185 16.4339H33.6626L34.3575 14.1013Z" fill="#090102"/>
<path d="M120.779 15.4651C120.779 15.4651 116.28 20.1611 113.583 19.8021C110.886 19.443 112.227 15.6257 115.127 13.3999C118.028 11.174 120.603 10.611 121.232 11.0471C121.861 11.4828 121.811 12.448 121.811 12.448C121.811 12.448 122.798 10.7219 123.913 11.3969C125.028 12.0715 123.519 13.9458 123.116 14.8802C122.713 15.8146 122.501 16.6309 122.713 16.7569C122.923 16.8828 124.45 15.6424 125.213 14.8737C125.977 14.1046 126.183 13.9708 126.41 14.032C126.636 14.093 127.109 15.1687 125.598 16.6087C124.607 17.5533 123.778 18.2708 122.848 18.5086C121.738 18.7913 120.702 18.5812 120.586 17.311C120.539 16.8041 120.605 16.1654 120.779 15.4651ZM100.018 14.1368C100.018 14.1368 108.343 22.1751 108.637 22.5803C108.931 22.9852 110.941 24.6196 112.081 23.7475C113.22 22.8754 111.739 21.8092 109.725 20.2792C107.71 18.7496 100.56 13.1928 100.56 13.1928C100.56 13.1928 100.324 13.0179 100.52 12.5449C100.716 12.0715 102.011 9.77483 102.011 9.77483C102.011 9.77483 102.29 9.28983 102.797 9.18886C103.305 9.08755 110.986 7.66848 113.143 6.85353C115.3 6.03892 115.787 4.88956 115.969 3.93976C116.15 2.98995 115.739 -0.0590276 107.781 0.000870242C99.8233 0.0611104 94.618 1.84983 95.5011 3.5855C95.9355 4.4405 96.6636 4.08317 97.3034 3.56531C98.493 2.60249 98.2841 2.45258 99.9126 2.00796C101.359 1.61366 103.838 1.24195 107.581 1.51988C111.875 1.83922 113.337 2.65623 113.737 3.30415C114.492 4.52573 112.54 5.01621 111.783 5.26401C109.924 5.87326 106.924 6.63311 103.431 7.42478C104.194 5.31364 104.228 5.25819 104.228 5.25819C104.228 5.25819 104.89 4.20604 103.671 3.02007C102.453 1.83443 102.246 4.27039 102.025 4.93611C101.805 5.60183 100.482 8.30237 100.482 8.30237C100.482 8.30237 98.7915 9.07762 97.9057 9.47569C97.0201 9.87409 96.3383 10.5313 96.8561 11.1491C97.2012 11.5605 97.5348 11.8764 97.719 12.0407C97.9126 12.2142 98.1552 12.3761 98.1361 12.6732C98.1176 12.9573 97.7927 13.3181 97.6245 13.6326C97.3809 14.0868 96.4064 15.6397 95.9261 16.7726C95.5845 17.5766 95.6158 19.2144 96.6233 19.5519C97.099 19.7114 97.8827 19.992 98.1079 18.5316C98.3331 17.0714 99.8386 13.8438 100.018 14.1368ZM97.7517 10.9102L98.3494 11.4301C98.3494 11.4301 98.756 11.7162 98.9587 11.313C99.1609 10.9102 99.7072 9.75875 99.7072 9.75875L98.0989 10.3567C98.0989 10.3567 97.36 10.6439 97.7517 10.9102ZM140.399 16.2869C141.354 15.856 143.062 15.1992 144.386 14.2001C144.975 13.7565 145.441 13.2845 145.747 12.8327C146.659 11.4879 146.075 10.827 144.566 10.7127C143.635 10.6425 142.41 10.8277 141.263 11.503C139.129 12.7588 138.114 15.5668 138.232 17.4606C138.349 19.3544 141.691 20.1136 144.219 18.5302C146.22 17.2768 147.802 16.1148 148.78 15.2851C149.214 14.9175 149.138 14.709 149.28 14.5704C149.401 14.453 149.721 14.4116 150.226 14.0734C151.097 13.4906 152.185 12.9635 152.574 12.7115C153.1 12.3706 153.574 12.5479 153.074 13.341C152.574 14.1337 150.245 17.6471 151.841 19.1932C153.438 20.7389 155.452 19.3842 157.32 17.8734C159.187 16.3629 160.414 14.9788 159.871 14.3072C159.568 13.9317 159.29 14.5003 158.632 15.1999C158.113 15.752 157.303 16.3646 156.427 16.8151C154.439 17.8364 153.562 18.2191 153.116 17.8001C152.672 17.3815 153.834 15.8433 154.588 14.9777C155.384 14.0649 155.909 13.2558 155.459 12.0143C154.852 10.3413 154.166 9.44454 152.446 10.8037C151.691 11.3993 150.768 12.1002 149.546 12.9823C149.208 13.2256 149.073 13.5761 148.794 13.7726C148.579 13.9242 148.224 13.9208 147.955 14.1066C146.774 14.924 145.462 15.9895 144.128 16.8116C140.985 18.7496 139.527 18.2341 139.681 17.1655C139.766 16.5755 139.904 16.5098 140.399 16.2869ZM140.819 14.2549C140.819 14.2549 141.463 12.6024 143.327 12.1211C143.81 12.0167 144.209 11.9958 144.291 12.1054C144.555 12.4593 143.95 13.1322 143.173 13.624C142.449 14.0834 141.566 14.3723 141.317 14.4811C140.777 14.7169 140.683 14.6587 140.819 14.2549ZM129.265 15.562C129.265 15.562 130.816 13.2147 132.76 12.792C134.704 12.3693 134.023 13.5949 135.476 12.6133C136.93 11.632 134.816 10.1017 132.681 10.7175C130.547 11.3332 128.472 13.0271 127.056 15.717C126.041 17.6461 127.246 19.428 129.13 19.772C129.92 19.9161 131.074 19.7774 132.188 19.2158C133.939 18.3327 135.59 16.9431 136.602 16.2072C138.578 14.7696 137.852 13.7418 136.02 14.9558C135.176 15.5144 133.308 16.8192 131.671 17.58C130.769 17.9997 129.582 18.4439 129.032 18.3176C128.166 18.1188 128.395 16.94 129.265 15.562ZM115.896 17.656C116.935 16.9636 119.244 15.2981 120.215 14.4171C121.649 13.1178 120.36 12.881 119.066 13.2821C117.782 13.6805 115.908 15.052 114.892 16.2609C113.618 17.7765 114.171 18.8061 115.896 17.656Z" fill="#C12125"/>
</g>
</svg>
