<svg width="375" height="78" viewBox="0 0 375 78" fill="none" xmlns="http://www.w3.org/2000/svg">
<g clip-path="url(#clip0_216_10)">
<path d="M101.39 44.456C98.806 44.456 96.526 43.943 94.55 42.917C92.574 41.891 91.035 40.428 89.933 38.528C88.869 36.628 88.337 34.424 88.337 31.916V16.07C88.337 13.6 88.869 11.434 89.933 9.572C91.035 7.672 92.574 6.209 94.55 5.183C96.526 4.157 98.806 3.644 101.39 3.644C103.974 3.644 106.254 4.157 108.23 5.183C110.206 6.171 111.726 7.577 112.79 9.401C113.892 11.225 114.443 13.353 114.443 15.785V16.07C114.443 16.26 114.367 16.431 114.215 16.583C114.101 16.735 113.949 16.811 113.759 16.811L107.09 17.096C106.634 17.096 106.406 16.887 106.406 16.469V15.728C106.406 14.17 105.95 12.916 105.038 11.966C104.126 11.016 102.91 10.541 101.39 10.541C99.87 10.541 98.654 11.016 97.742 11.966C96.83 12.916 96.374 14.17 96.374 15.728V32.429C96.374 33.987 96.83 35.241 97.742 36.191C98.654 37.103 99.87 37.559 101.39 37.559C102.91 37.559 104.126 37.103 105.038 36.191C105.95 35.241 106.406 33.987 106.406 32.429V31.688C106.406 31.27 106.634 31.061 107.09 31.061L113.759 31.346C113.949 31.346 114.101 31.422 114.215 31.574C114.367 31.688 114.443 31.84 114.443 32.03V32.201C114.443 34.633 113.892 36.78 112.79 38.642C111.726 40.504 110.206 41.948 108.23 42.974C106.254 43.962 103.974 44.456 101.39 44.456ZM136.226 14.246C138.506 14.246 140.539 14.664 142.325 15.5C144.111 16.298 145.498 17.438 146.486 18.92C147.512 20.364 148.025 22.017 148.025 23.879V43.316C148.025 43.506 147.949 43.677 147.797 43.829C147.683 43.943 147.531 44 147.341 44H140.672C140.482 44 140.311 43.943 140.159 43.829C140.045 43.677 139.988 43.506 139.988 43.316V41.72C139.988 41.606 139.95 41.53 139.874 41.492C139.798 41.454 139.722 41.492 139.646 41.606C138.202 43.506 135.96 44.456 132.92 44.456C130.336 44.456 128.17 43.791 126.422 42.461C124.712 41.131 123.857 38.908 123.857 35.792C123.857 29.598 127.733 26.501 135.485 26.501H139.703C139.893 26.501 139.988 26.406 139.988 26.216V24.905C139.988 23.765 139.646 22.853 138.962 22.169C138.316 21.485 137.423 21.143 136.283 21.143C135.371 21.143 134.611 21.352 134.003 21.77C133.395 22.188 133.015 22.758 132.863 23.48C132.749 23.86 132.483 24.05 132.065 24.05L125.168 23.651C124.978 23.651 124.807 23.594 124.655 23.48C124.541 23.366 124.503 23.214 124.541 23.024C124.769 20.402 125.947 18.293 128.075 16.697C130.241 15.063 132.958 14.246 136.226 14.246ZM135.314 38.357C136.606 38.357 137.708 37.996 138.62 37.274C139.532 36.552 139.988 35.602 139.988 34.424V32.03C139.988 31.84 139.893 31.745 139.703 31.745H136.511C135.105 31.745 134.003 32.049 133.205 32.657C132.407 33.265 132.008 34.139 132.008 35.279C132.008 36.267 132.312 37.027 132.92 37.559C133.528 38.091 134.326 38.357 135.314 38.357ZM159.385 44C159.195 44 159.024 43.943 158.872 43.829C158.758 43.677 158.701 43.506 158.701 43.316V4.784C158.701 4.594 158.758 4.442 158.872 4.328C159.024 4.176 159.195 4.1 159.385 4.1H166.054C166.244 4.1 166.396 4.176 166.51 4.328C166.662 4.442 166.738 4.594 166.738 4.784V43.316C166.738 43.506 166.662 43.677 166.51 43.829C166.396 43.943 166.244 44 166.054 44H159.385ZM189.342 44.456C186.15 44.456 183.509 43.658 181.419 42.062C179.367 40.428 178.094 38.205 177.6 35.393C177.296 33.835 177.144 31.783 177.144 29.237C177.144 27.337 177.296 25.323 177.6 23.195C178.094 20.459 179.386 18.293 181.476 16.697C183.566 15.063 186.188 14.246 189.342 14.246C192.42 14.246 195.004 15.025 197.094 16.583C199.222 18.141 200.533 20.193 201.027 22.739C201.103 23.081 201.179 23.632 201.255 24.392C201.255 24.81 201.027 25.057 200.571 25.133L194.016 25.76H193.902C193.56 25.76 193.351 25.551 193.275 25.133C193.275 24.867 193.256 24.677 193.218 24.563C193.142 24.259 193.066 23.993 192.99 23.765C192.762 23.005 192.325 22.378 191.679 21.884C191.033 21.39 190.235 21.143 189.285 21.143C188.259 21.143 187.423 21.447 186.777 22.055C186.131 22.663 185.713 23.499 185.523 24.563C185.295 25.817 185.181 27.394 185.181 29.294C185.181 31.384 185.314 33.018 185.58 34.196C185.77 35.222 186.169 36.039 186.777 36.647C187.423 37.255 188.259 37.559 189.285 37.559C190.387 37.559 191.261 37.255 191.907 36.647C192.591 36.039 192.99 35.279 193.104 34.367L193.218 33.683C193.256 33.493 193.332 33.341 193.446 33.227C193.598 33.075 193.769 33.018 193.959 33.056L200.571 33.626C200.989 33.702 201.198 33.949 201.198 34.367C201.198 34.595 201.16 34.975 201.084 35.507C200.704 38.281 199.45 40.466 197.322 42.062C195.232 43.658 192.572 44.456 189.342 44.456ZM226.525 15.386C226.525 15.196 226.582 15.044 226.696 14.93C226.848 14.778 227.019 14.702 227.209 14.702H233.878C234.068 14.702 234.22 14.778 234.334 14.93C234.486 15.044 234.562 15.196 234.562 15.386V43.316C234.562 43.506 234.486 43.677 234.334 43.829C234.22 43.943 234.068 44 233.878 44H227.209C227.019 44 226.848 43.943 226.696 43.829C226.582 43.677 226.525 43.506 226.525 43.316V41.891C226.525 41.777 226.487 41.72 226.411 41.72C226.335 41.682 226.259 41.701 226.183 41.777C224.891 43.525 222.858 44.399 220.084 44.399C217.5 44.399 215.372 43.62 213.7 42.062C212.028 40.504 211.192 38.205 211.192 35.165V15.386C211.192 15.196 211.249 15.044 211.363 14.93C211.515 14.778 211.686 14.702 211.876 14.702H218.545C218.735 14.702 218.887 14.778 219.001 14.93C219.153 15.044 219.229 15.196 219.229 15.386V33.284C219.229 34.614 219.533 35.659 220.141 36.419C220.787 37.179 221.68 37.559 222.82 37.559C223.96 37.559 224.853 37.16 225.499 36.362C226.183 35.564 226.525 34.5 226.525 33.17V15.386ZM246.252 44C246.062 44 245.891 43.943 245.739 43.829C245.625 43.677 245.568 43.506 245.568 43.316V4.784C245.568 4.594 245.625 4.442 245.739 4.328C245.891 4.176 246.062 4.1 246.252 4.1H252.921C253.111 4.1 253.263 4.176 253.377 4.328C253.529 4.442 253.605 4.594 253.605 4.784V43.316C253.605 43.506 253.529 43.677 253.377 43.829C253.263 43.943 253.111 44 252.921 44H246.252ZM275.753 14.246C278.033 14.246 280.066 14.664 281.852 15.5C283.638 16.298 285.025 17.438 286.013 18.92C287.039 20.364 287.552 22.017 287.552 23.879V43.316C287.552 43.506 287.476 43.677 287.324 43.829C287.21 43.943 287.058 44 286.868 44H280.199C280.009 44 279.838 43.943 279.686 43.829C279.572 43.677 279.515 43.506 279.515 43.316V41.72C279.515 41.606 279.477 41.53 279.401 41.492C279.325 41.454 279.249 41.492 279.173 41.606C277.729 43.506 275.487 44.456 272.447 44.456C269.863 44.456 267.697 43.791 265.949 42.461C264.239 41.131 263.384 38.908 263.384 35.792C263.384 29.598 267.26 26.501 275.012 26.501H279.23C279.42 26.501 279.515 26.406 279.515 26.216V24.905C279.515 23.765 279.173 22.853 278.489 22.169C277.843 21.485 276.95 21.143 275.81 21.143C274.898 21.143 274.138 21.352 273.53 21.77C272.922 22.188 272.542 22.758 272.39 23.48C272.276 23.86 272.01 24.05 271.592 24.05L264.695 23.651C264.505 23.651 264.334 23.594 264.182 23.48C264.068 23.366 264.03 23.214 264.068 23.024C264.296 20.402 265.474 18.293 267.602 16.697C269.768 15.063 272.485 14.246 275.753 14.246ZM274.841 38.357C276.133 38.357 277.235 37.996 278.147 37.274C279.059 36.552 279.515 35.602 279.515 34.424V32.03C279.515 31.84 279.42 31.745 279.23 31.745H276.038C274.632 31.745 273.53 32.049 272.732 32.657C271.934 33.265 271.535 34.139 271.535 35.279C271.535 36.267 271.839 37.027 272.447 37.559C273.055 38.091 273.853 38.357 274.841 38.357ZM313.169 20.06C313.169 20.25 313.093 20.421 312.941 20.573C312.827 20.687 312.675 20.744 312.485 20.744H308.096C307.906 20.744 307.811 20.839 307.811 21.029V33.854C307.811 35.032 308.039 35.887 308.495 36.419C308.989 36.913 309.73 37.141 310.718 37.103H311.858C312.048 37.103 312.2 37.179 312.314 37.331C312.466 37.445 312.542 37.597 312.542 37.787V43.316C312.542 43.772 312.314 44 311.858 44C311.212 44.038 310.262 44.057 309.008 44.057C306.006 44.057 303.764 43.563 302.282 42.575C300.838 41.587 300.116 39.725 300.116 36.989V21.029C300.116 20.839 300.021 20.744 299.831 20.744H297.209C297.019 20.744 296.848 20.687 296.696 20.573C296.582 20.421 296.525 20.25 296.525 20.06V15.386C296.525 15.196 296.582 15.044 296.696 14.93C296.848 14.778 297.019 14.702 297.209 14.702H299.831C300.021 14.702 300.116 14.607 300.116 14.417V7.862C300.116 7.672 300.173 7.52 300.287 7.406C300.439 7.254 300.61 7.178 300.8 7.178H307.127C307.317 7.178 307.469 7.254 307.583 7.406C307.735 7.52 307.811 7.672 307.811 7.862V14.417C307.811 14.607 307.906 14.702 308.096 14.702H312.485C312.675 14.702 312.827 14.778 312.941 14.93C313.093 15.044 313.169 15.196 313.169 15.386V20.06ZM334.719 44.456C331.413 44.456 328.696 43.639 326.568 42.005C324.478 40.333 323.224 38.053 322.806 35.165C322.502 33.417 322.35 31.46 322.35 29.294C322.35 27.09 322.502 25.133 322.806 23.423C323.224 20.611 324.478 18.388 326.568 16.754C328.696 15.082 331.413 14.246 334.719 14.246C337.987 14.246 340.647 15.082 342.699 16.754C344.789 18.388 346.062 20.611 346.518 23.423C346.822 25.133 346.974 27.09 346.974 29.294C346.974 31.422 346.822 33.36 346.518 35.108C346.1 38.034 344.846 40.333 342.756 42.005C340.704 43.639 338.025 44.456 334.719 44.456ZM334.719 37.559C335.707 37.559 336.543 37.236 337.227 36.59C337.949 35.944 338.424 35.07 338.652 33.968C338.842 32.372 338.937 30.814 338.937 29.294C338.937 27.736 338.842 26.197 338.652 24.677C338.462 23.575 338.006 22.72 337.284 22.112C336.6 21.466 335.726 21.143 334.662 21.143C333.636 21.143 332.762 21.466 332.04 22.112C331.356 22.72 330.919 23.575 330.729 24.677C330.539 25.817 330.444 27.356 330.444 29.294C330.444 31.194 330.52 32.752 330.672 33.968C330.9 35.07 331.375 35.944 332.097 36.59C332.819 37.236 333.693 37.559 334.719 37.559ZM371.48 14.303C372.506 14.303 373.437 14.531 374.273 14.987C374.577 15.177 374.691 15.481 374.615 15.899L373.475 22.454C373.437 22.91 373.171 23.043 372.677 22.853C372.069 22.701 371.518 22.625 371.024 22.625C370.568 22.625 370.074 22.682 369.542 22.796C368.44 22.948 367.509 23.48 366.749 24.392C365.989 25.304 365.609 26.406 365.609 27.698V43.316C365.609 43.506 365.533 43.677 365.381 43.829C365.267 43.943 365.115 44 364.925 44H358.256C358.066 44 357.895 43.943 357.743 43.829C357.629 43.677 357.572 43.506 357.572 43.316V15.386C357.572 15.196 357.629 15.044 357.743 14.93C357.895 14.778 358.066 14.702 358.256 14.702H364.925C365.115 14.702 365.267 14.778 365.381 14.93C365.533 15.044 365.609 15.196 365.609 15.386V17.666C365.609 17.818 365.628 17.913 365.666 17.951C365.742 17.951 365.818 17.894 365.894 17.78C367.224 15.462 369.086 14.303 371.48 14.303Z" fill="#0745BC"/>
<path d="M95.32 62.026C95.32 61.9393 95.346 61.87 95.398 61.818C95.4673 61.7487 95.5453 61.714 95.632 61.714H98.024C98.1107 61.714 98.18 61.7487 98.232 61.818C98.3013 61.87 98.336 61.9393 98.336 62.026V74.688C98.336 74.7747 98.3013 74.8527 98.232 74.922C98.18 74.974 98.1107 75 98.024 75H95.632C95.5453 75 95.4673 74.974 95.398 74.922C95.346 74.8527 95.32 74.7747 95.32 74.688V73.986C95.32 73.934 95.3027 73.908 95.268 73.908C95.2333 73.8907 95.1987 73.908 95.164 73.96C94.5747 74.7747 93.6473 75.182 92.382 75.182C91.2033 75.182 90.224 74.8353 89.444 74.142C88.664 73.4313 88.274 72.4 88.274 71.048V62.026C88.274 61.9393 88.3 61.87 88.352 61.818C88.4213 61.7487 88.4993 61.714 88.586 61.714H90.978C91.0647 61.714 91.134 61.7487 91.186 61.818C91.2553 61.87 91.29 61.9393 91.29 62.026V70.294C91.29 71.022 91.4547 71.594 91.784 72.01C92.1307 72.4087 92.6247 72.608 93.266 72.608C93.9073 72.608 94.41 72.4 94.774 71.984C95.138 71.5507 95.32 70.97 95.32 70.242V62.026ZM111.707 61.506C112.972 61.506 113.96 61.9047 114.671 62.702C115.381 63.4993 115.737 64.6 115.737 66.004V74.688C115.737 74.7747 115.702 74.8527 115.633 74.922C115.581 74.974 115.511 75 115.425 75H113.033C112.946 75 112.868 74.974 112.799 74.922C112.747 74.8527 112.721 74.7747 112.721 74.688V66.42C112.721 65.7093 112.539 65.146 112.175 64.73C111.828 64.314 111.351 64.106 110.745 64.106C110.121 64.106 109.618 64.3227 109.237 64.756C108.873 65.172 108.691 65.7353 108.691 66.446V74.688C108.691 74.7747 108.656 74.8527 108.587 74.922C108.535 74.974 108.465 75 108.379 75H105.987C105.9 75 105.822 74.974 105.753 74.922C105.701 74.8527 105.675 74.7747 105.675 74.688V62.026C105.675 61.9393 105.701 61.87 105.753 61.818C105.822 61.7487 105.9 61.714 105.987 61.714H108.379C108.465 61.714 108.535 61.7487 108.587 61.818C108.656 61.87 108.691 61.9393 108.691 62.026V62.702C108.691 62.754 108.708 62.7887 108.743 62.806C108.777 62.8233 108.812 62.806 108.847 62.754C109.54 61.922 110.493 61.506 111.707 61.506ZM124.634 59.894C124.097 59.894 123.655 59.7207 123.308 59.374C122.979 59.0273 122.814 58.5853 122.814 58.048C122.814 57.5107 122.979 57.0687 123.308 56.722C123.655 56.3753 124.097 56.202 124.634 56.202C125.189 56.202 125.631 56.3753 125.96 56.722C126.307 57.0513 126.48 57.4933 126.48 58.048C126.48 58.5853 126.307 59.0273 125.96 59.374C125.614 59.7207 125.172 59.894 124.634 59.894ZM123.438 75C123.352 75 123.274 74.974 123.204 74.922C123.152 74.8527 123.126 74.7747 123.126 74.688V62C123.126 61.9133 123.152 61.844 123.204 61.792C123.274 61.7227 123.352 61.688 123.438 61.688H125.83C125.917 61.688 125.986 61.7227 126.038 61.792C126.108 61.844 126.142 61.9133 126.142 62V74.688C126.142 74.7747 126.108 74.8527 126.038 74.922C125.986 74.974 125.917 75 125.83 75H123.438ZM136.889 75C136.699 75 136.577 74.9133 136.525 74.74L132.885 62.026L132.859 61.922C132.859 61.766 132.955 61.688 133.145 61.688H135.771C135.945 61.688 136.057 61.7747 136.109 61.948L138.163 70.554C138.181 70.6233 138.207 70.658 138.241 70.658C138.276 70.658 138.302 70.6233 138.319 70.554L140.347 61.974C140.399 61.7833 140.512 61.688 140.685 61.688L143.337 61.74C143.563 61.74 143.649 61.8527 143.597 62.078L139.957 74.74C139.905 74.9133 139.784 75 139.593 75H136.889ZM159.781 66.134C159.833 66.706 159.859 67.3647 159.859 68.11L159.833 69.228C159.833 69.436 159.729 69.54 159.521 69.54H152.553C152.466 69.54 152.423 69.5833 152.423 69.67C152.457 70.1553 152.492 70.5107 152.527 70.736C152.613 71.308 152.856 71.7673 153.255 72.114C153.653 72.4607 154.156 72.634 154.763 72.634C155.283 72.6167 155.716 72.4867 156.063 72.244C156.427 72.0013 156.704 71.6633 156.895 71.23C156.981 71.0393 157.111 70.97 157.285 71.022L159.417 71.464C159.625 71.5333 159.694 71.6633 159.625 71.854C159.278 72.9287 158.68 73.7607 157.831 74.35C156.999 74.922 155.976 75.208 154.763 75.208C153.324 75.208 152.171 74.8613 151.305 74.168C150.438 73.4747 149.875 72.5127 149.615 71.282C149.528 70.814 149.467 70.32 149.433 69.8C149.415 69.28 149.407 68.5867 149.407 67.72C149.407 66.8187 149.45 66.134 149.537 65.666C149.71 64.4007 150.247 63.3953 151.149 62.65C152.05 61.8873 153.194 61.506 154.581 61.506C156.089 61.506 157.302 61.9307 158.221 62.78C159.157 63.6293 159.677 64.7473 159.781 66.134ZM154.607 64.106C154.035 64.106 153.558 64.2793 153.177 64.626C152.813 64.9553 152.587 65.406 152.501 65.978C152.449 66.3593 152.423 66.7927 152.423 67.278C152.423 67.3647 152.466 67.408 152.553 67.408H156.687C156.773 67.408 156.817 67.3647 156.817 67.278C156.782 66.6887 156.747 66.264 156.713 66.004C156.643 65.432 156.418 64.9727 156.037 64.626C155.655 64.2793 155.179 64.106 154.607 64.106ZM172.556 61.558C173.042 61.558 173.466 61.662 173.83 61.87C173.969 61.9393 174.021 62.0693 173.986 62.26L173.544 64.626C173.527 64.834 173.406 64.8947 173.18 64.808C172.955 64.7213 172.695 64.678 172.4 64.678C172.279 64.678 172.097 64.6953 171.854 64.73C171.265 64.782 170.771 65.0507 170.372 65.536C169.991 66.0213 169.8 66.628 169.8 67.356V74.688C169.8 74.7747 169.766 74.8527 169.696 74.922C169.644 74.974 169.575 75 169.488 75H167.096C167.01 75 166.932 74.974 166.862 74.922C166.81 74.8527 166.784 74.7747 166.784 74.688V62.026C166.784 61.9393 166.81 61.87 166.862 61.818C166.932 61.7487 167.01 61.714 167.096 61.714H169.488C169.575 61.714 169.644 61.7487 169.696 61.818C169.766 61.87 169.8 61.9393 169.8 62.026V63.144C169.8 63.2133 169.809 63.2567 169.826 63.274C169.861 63.274 169.896 63.248 169.93 63.196C170.554 62.104 171.43 61.558 172.556 61.558ZM184.669 75.156C183.161 75.156 181.956 74.818 181.055 74.142C180.153 73.466 179.703 72.582 179.703 71.49V71.282C179.703 71.1953 179.729 71.126 179.781 71.074C179.85 71.0047 179.928 70.97 180.015 70.97H182.277C182.363 70.97 182.433 71.0047 182.485 71.074C182.554 71.126 182.589 71.1953 182.589 71.282V71.36C182.589 71.776 182.788 72.14 183.187 72.452C183.585 72.7467 184.079 72.894 184.669 72.894C185.241 72.894 185.7 72.7553 186.047 72.478C186.411 72.2007 186.593 71.854 186.593 71.438C186.593 71.022 186.411 70.7013 186.047 70.476C185.7 70.2507 185.154 70.008 184.409 69.748L183.733 69.514C182.554 69.1327 181.609 68.656 180.899 68.084C180.188 67.4947 179.833 66.628 179.833 65.484C179.833 64.2707 180.266 63.3173 181.133 62.624C181.999 61.9133 183.143 61.558 184.565 61.558C186.038 61.558 187.208 61.922 188.075 62.65C188.959 63.3607 189.401 64.314 189.401 65.51V65.536C189.401 65.6227 189.366 65.7007 189.297 65.77C189.245 65.822 189.175 65.848 189.089 65.848H186.905C186.818 65.848 186.74 65.822 186.671 65.77C186.619 65.7007 186.593 65.6227 186.593 65.536V65.432C186.593 64.9987 186.411 64.6433 186.047 64.366C185.683 64.0713 185.206 63.924 184.617 63.924C184.045 63.924 183.585 64.0627 183.239 64.34C182.892 64.6 182.719 64.938 182.719 65.354C182.719 65.6833 182.84 65.9607 183.083 66.186C183.325 66.394 183.594 66.5587 183.889 66.68C184.201 66.8013 184.738 66.992 185.501 67.252C186.315 67.5293 187 67.8153 187.555 68.11C188.127 68.4047 188.612 68.812 189.011 69.332C189.409 69.852 189.609 70.5107 189.609 71.308C189.609 72.504 189.158 73.4487 188.257 74.142C187.373 74.818 186.177 75.156 184.669 75.156ZM201.108 61.506C202.096 61.506 202.972 61.6967 203.734 62.078C204.497 62.442 205.086 62.9533 205.502 63.612C205.936 64.2707 206.152 65.0247 206.152 65.874V74.688C206.152 74.7747 206.118 74.8527 206.048 74.922C205.996 74.974 205.927 75 205.84 75H203.448C203.362 75 203.284 74.974 203.214 74.922C203.162 74.8527 203.136 74.7747 203.136 74.688V74.038C203.136 73.986 203.119 73.9513 203.084 73.934C203.05 73.9167 203.015 73.9253 202.98 73.96C202.252 74.792 201.204 75.208 199.834 75.208C198.69 75.208 197.72 74.9047 196.922 74.298C196.125 73.674 195.726 72.6687 195.726 71.282C195.726 69.826 196.186 68.7427 197.104 68.032C198.04 67.3213 199.323 66.966 200.952 66.966H203.006C203.093 66.966 203.136 66.9227 203.136 66.836V66.186C203.136 65.5447 202.954 65.042 202.59 64.678C202.244 64.2967 201.758 64.106 201.134 64.106C200.632 64.106 200.216 64.2273 199.886 64.47C199.574 64.6953 199.375 65.0073 199.288 65.406C199.236 65.5967 199.115 65.692 198.924 65.692L196.402 65.536C196.316 65.536 196.238 65.51 196.168 65.458C196.116 65.3887 196.099 65.3193 196.116 65.25C196.22 64.1407 196.732 63.2393 197.65 62.546C198.586 61.8527 199.739 61.506 201.108 61.506ZM200.614 72.764C201.29 72.764 201.88 72.5733 202.382 72.192C202.885 71.7933 203.136 71.2733 203.136 70.632V69.28C203.136 69.1933 203.093 69.15 203.006 69.15H201.264C200.502 69.15 199.895 69.3147 199.444 69.644C199.011 69.9733 198.794 70.45 198.794 71.074C198.794 71.6287 198.959 72.0533 199.288 72.348C199.635 72.6253 200.077 72.764 200.614 72.764ZM213.55 75C213.464 75 213.386 74.974 213.316 74.922C213.264 74.8527 213.238 74.7747 213.238 74.688V57.112C213.238 57.0253 213.264 56.956 213.316 56.904C213.386 56.8347 213.464 56.8 213.55 56.8H215.942C216.029 56.8 216.098 56.8347 216.15 56.904C216.22 56.956 216.254 57.0253 216.254 57.112V74.688C216.254 74.7747 216.22 74.8527 216.15 74.922C216.098 74.974 216.029 75 215.942 75H213.55Z" fill="#024646"/>
</g>
<path d="M44.9696 42.7292C44.0787 42.7518 43.2305 43.1159 42.6003 43.7461C41.9701 44.3763 41.606 45.2245 41.5834 46.1154V68.7979C41.569 69.2633 41.6482 69.7269 41.8164 70.1611C41.9846 70.5953 42.2384 70.9913 42.5626 71.3255C42.8868 71.6597 43.2749 71.9254 43.7037 72.1068C44.1326 72.2881 44.5935 72.3815 45.0592 72.3812H67.6521C68.6025 72.3812 69.5139 72.0037 70.1859 71.3317C70.8579 70.6597 71.2354 69.7483 71.2354 68.7979V46.1154C71.2357 45.6498 71.1423 45.1888 70.961 44.76C70.7796 44.3311 70.5139 43.943 70.1797 43.6188C69.8454 43.2946 69.4495 43.0409 69.0153 42.8727C68.5811 42.7044 68.1175 42.6252 67.6521 42.6396L44.9696 42.7292ZM8.34794 6C7.41319 6.02338 6.52461 6.4112 5.87185 7.08069C5.2191 7.75018 4.8539 8.64829 4.85419 9.58333V32.1763C4.85396 32.6419 4.9473 33.1028 5.12867 33.5317C5.31003 33.9606 5.57571 34.3486 5.90994 34.6728C6.24418 34.997 6.64015 35.2508 7.07434 35.419C7.50853 35.5872 7.9721 35.6665 8.43752 35.6521H31.0304C31.9523 35.6521 32.8364 35.2859 33.4882 34.634C34.1401 33.9822 34.5063 33.0981 34.5063 32.1763V9.49375C34.5086 9.03579 34.4205 8.58188 34.2468 8.1581C34.0732 7.73433 33.8176 7.34904 33.4946 7.02437C33.1716 6.69971 32.7876 6.44208 32.3647 6.26629C31.9419 6.09049 31.4884 5.99999 31.0304 6H8.34794Z" stroke="#4457BD" stroke-width="4" stroke-linecap="round" stroke-linejoin="round"/>
<path d="M65.9142 6H46.7254C43.836 6 41.4937 8.3423 41.4937 11.2317V30.4204C41.4937 33.3098 43.836 35.6521 46.7254 35.6521H65.9142C68.8035 35.6521 71.1458 33.3098 71.1458 30.4204V11.2317C71.1458 8.3423 68.8035 6 65.9142 6Z" stroke="#0745BC" stroke-width="4" stroke-linecap="round" stroke-linejoin="round"/>
<path d="M31.0125 42.6396H8.34794C6.41839 42.6396 4.85419 44.2038 4.85419 46.1333V68.7979C4.85419 70.7275 6.41839 72.2917 8.34794 72.2917H31.0125C32.9421 72.2917 34.5063 70.7275 34.5063 68.7979V46.1333C34.5063 44.2038 32.9421 42.6396 31.0125 42.6396Z" stroke="#0745BC" stroke-width="4" stroke-linecap="round" stroke-linejoin="round"/>
<path d="M19.6892 11.2317V30.4204M10.0858 20.835H29.2746M46.7254 52.225H65.9142M46.7254 62.6883H65.9142" stroke="#024646" stroke-width="4" stroke-linecap="round" stroke-linejoin="round"/>
<line x1="82" y1="3" x2="82" y2="75" stroke="black" stroke-width="2"/>
<defs>
<clipPath id="clip0_216_10">
<rect width="288" height="78" fill="white" transform="translate(87)"/>
</clipPath>
</defs>
</svg>
