<svg width="166" height="35" viewBox="0 0 166 35" fill="none" xmlns="http://www.w3.org/2000/svg">
<g clip-path="url(#clip0_10629_152188)">
<path d="M21.6914 34.9999C29.3681 26.8541 37.3126 20.2301 44.9894 18.1712C52.6661 16.1124 66.5913 16.2019 77.4815 20.3196C65.8772 13.7851 51.952 11.9053 43.2933 14.5907C34.6347 17.2761 26.958 25.1533 21.6914 34.9999Z" fill="#F36C21"/>
<path d="M66.1432 13.4271C73.3736 10.3836 77.7475 5.1023 78.3724 2.95396C75.3374 4.38619 70.3386 4.56522 68.3748 3.40153C67.9285 3.13299 67.3929 2.95396 66.8573 2.95396C65.2505 2.95396 62.7511 3.04348 62.7511 3.04348C62.3048 1.2532 59.6269 0 59.6269 0C59.6269 0 59.0913 3.31202 59.6269 4.56522C55.2529 6.08696 47.5762 11.9949 48.0225 11.6368C51.3253 10.3836 62.4833 3.75959 72.3024 6.71355C72.1239 8.86189 66.1432 13.4271 66.1432 13.4271Z" fill="#F36C21"/>
<path d="M25.8866 22.8257C19.3703 28.1071 12.497 32.5828 0 28.2861C5.26659 20.7669 14.2823 14.0534 29.6357 16.1122C36.8661 17.6339 41.9542 13.4268 41.9542 13.4268C36.9554 17.6339 33.117 18.5291 28.6538 18.35C24.1906 18.171 11.158 16.6493 5.62364 27.2119C12.5863 29.7183 25.8866 22.8257 25.8866 22.8257Z" fill="#F36C21"/>
<path d="M47.043 25.6006V34.9996H62.2179V32.7617H49.6316V25.6006H47.043Z" fill="#414147"/>
<path d="M79.1765 25.6006V34.9996H63.6445V25.6006H79.1765ZM65.8761 27.8384V32.7617H76.9449V27.8384H65.8761Z" fill="#414147"/>
<path d="M148.805 25.6006V34.9996H133.273V25.6006H148.805ZM135.416 27.8384V32.7617H146.485V27.8384H135.416Z" fill="#414147"/>
<path d="M98.9933 25.6006H96.7617V34.9996H98.9933V25.6006Z" fill="#414147"/>
<path d="M131.843 27.8384V25.6006H116.668V34.9996H119.257V31.419H131.843V29.1811H119.257V27.8384H131.843Z" fill="#414147"/>
<path d="M95.4227 27.8384V25.6006H80.5156V34.9996H95.4227V29.1811H84.5325V31.419H93.1911V32.7617H82.7472V27.8384H95.4227Z" fill="#414147"/>
<path d="M115.24 32.7617H102.653V27.8384H115.329V25.6006H100.422V34.9996H115.24V32.7617Z" fill="#414147"/>
<path d="M165.494 25.6904H163.173L161.656 29.1815H152.372V25.6904H150.141V31.1508H151.837L150.141 34.9104H152.551L154.068 31.4193H163.262V34.9104H165.494V29.45H163.887L165.494 25.6904Z" fill="#414147"/>
</g>
<defs>
<clipPath id="clip0_10629_152188">
<rect width="166" height="35" fill="white"/>
</clipPath>
</defs>
</svg>
