<svg width="260" viewBox="0 0 594 95" fill="none" xmlns="http://www.w3.org/2000/svg">
<g clip-path="url(#clip0_8_20)">
<path d="M31.5727 15.2623C34.6681 7.78688 40.2397 6.22951 51.383 6.22951C91.0037 6.22951 130.624 6.22951 170.245 6.22951C159.721 32.7049 149.196 59.4918 138.672 86.2787C135.886 93.7541 130.315 95.3115 118.862 95.3115C79.2413 95.3115 39.3111 95.3115 -0.30954 95.3115C10.5242 68.5246 21.0485 41.7377 31.5727 15.2623Z" fill="#E61E37"/>
<path d="M98.4325 49.8361L104.314 34.8852H86.0511H80.789H63.7645L77.3841 37.6885L78.6222 39.2459L74.5982 49.8361H98.4325ZM127.219 53.5738C126.6 55.1311 124.743 56.6885 121.957 57.623C119.481 58.5574 117.314 59.1803 114.838 59.1803H70.8838L46.1209 78.8033H32.8108L55.0974 23.0492H129.386C131.553 23.0492 133.72 23.3607 135.267 24.6066C137.434 25.8525 138.053 27.0984 137.434 28.6557L127.219 53.5738Z" fill="white"/>
<path d="M254.439 53.5738C253.82 55.1312 251.962 56.6885 249.177 57.623C246.7 58.5574 244.534 59.1803 242.057 59.1803H198.103L190.365 78.8033H160.03L182.317 23.0492H256.606C258.772 23.0492 260.939 23.3607 262.487 24.6066C264.653 25.8525 265.273 27.0984 264.653 28.6557L254.439 53.5738ZM225.342 49.8361L231.224 34.8852H213.27H207.699H190.674L204.603 37.6885L205.842 39.2459L201.818 49.8361H225.342ZM342.347 78.4918H315.417L301.488 45.7869H321.608L325.942 34.5738H307.679H302.107H285.083L299.012 37.3771L300.25 38.9344L296.536 49.8361L285.083 78.4918H254.748L277.035 22.7377H351.324C353.49 22.7377 355.657 23.0492 357.205 24.2951C359.372 25.541 359.991 26.7869 359.372 28.3443L350.705 49.8361C350.085 51.3934 348.228 52.9508 345.442 53.8852C342.966 54.8197 340.799 55.4426 338.323 55.4426H332.442L342.347 78.4918ZM436.137 72.8853C435.517 74.4426 433.66 76 430.874 76.9344C428.398 77.8689 426.231 78.4918 423.755 78.4918H359.372C357.205 78.4918 355.038 78.1803 353.49 76.9344C351.324 75.6885 350.705 74.4426 351.324 72.8853L368.967 28.0328C369.586 26.4754 371.443 24.918 374.229 23.9836C376.706 23.0492 378.872 22.4262 381.039 22.4262H445.732C447.899 22.4262 450.066 22.7377 451.613 23.9836C453.78 25.2295 454.399 26.4754 453.78 28.0328L436.137 72.8853ZM407.969 66.3443L420.66 34.5738H402.397H397.135H380.111L394.04 37.3771L395.278 38.9344L391.254 49.2131L391.563 48.9016L384.754 66.0328H407.969V66.3443ZM550.665 22.7377L535.807 34.8852H497.425H491.853H474.829L488.758 37.6885L489.996 39.2459L487.52 45.7869H531.474L527.759 55.1312H483.805L474.519 78.4918H444.184L466.471 22.7377H550.665ZM565.523 78.4918H535.188L557.475 22.7377H587.809L565.523 78.4918Z" fill="#2D2D2D"/>
</g>
</svg>
